<?xml version="1.0" standalone="no"?>
<!DOCTYPE svg PUBLIC "-//W3C//DTD SVG 20010904//EN"
 "http://www.w3.org/TR/2001/REC-SVG-20010904/DTD/svg10.dtd">
<svg version="1.0" xmlns="http://www.w3.org/2000/svg"
 width="3816.000000pt" height="1794.000000pt" viewBox="0 0 3816.000000 1794.000000"
 preserveAspectRatio="xMidYMid meet">

<g transform="translate(0.000000,1794.000000) scale(0.100000,-0.100000)"
fill="#000000" stroke="none">
<path d="M1985 17933 c-206 -5 -500 -24 -652 -44 -442 -56 -707 -166 -918
-384 -284 -292 -378 -649 -406 -1535 -15 -505 -7 -14114 9 -14315 54 -675 156
-983 408 -1232 290 -288 651 -385 1529 -414 492 -16 34349 -7 34550 9 677 55
983 156 1232 408 287 289 385 652 414 1529 15 481 7 14128 -9 14330 -54 675
-156 983 -408 1232 -285 283 -648 383 -1489 413 -240 8 -33895 12 -34260 3z"/>
</g>
</svg>
