<?xml version="1.0" standalone="no"?>
<!DOCTYPE svg PUBLIC "-//W3C//DTD SVG 20010904//EN"
 "http://www.w3.org/TR/2001/REC-SVG-20010904/DTD/svg10.dtd">
<svg version="1.0" xmlns="http://www.w3.org/2000/svg"
 width="1941.000000pt" height="942.000000pt" viewBox="0 0 1941.000000 942.000000"
 preserveAspectRatio="xMidYMid meet">

<g transform="translate(0.000000,942.000000) scale(0.100000,-0.100000)"
fill="#000000" stroke="none">
<path d="M12833 5165 c-7 -8 -13 -21 -13 -30 0 -9 -5 -15 -12 -13 -7 3 -22
-16 -34 -41 -12 -25 -29 -55 -38 -66 -16 -19 -16 -19 -14 -1 2 10 -3 21 -9 23
-7 3 -13 0 -13 -6 0 -6 -7 -11 -16 -11 -8 0 -13 -4 -10 -9 3 -5 -4 -11 -16
-14 -25 -7 -18 -19 15 -24 32 -5 209 -3 230 3 26 8 20 33 -9 40 -24 6 -25 8
-8 17 11 5 20 11 22 12 1 1 -3 15 -9 31 -7 16 -12 32 -11 37 1 4 -2 7 -8 7 -5
0 -10 6 -10 13 0 7 -6 21 -12 29 -11 14 -15 15 -25 3z m-55 -143 c-10 -41 -21
-52 -33 -33 -5 9 34 85 41 79 2 -2 -2 -23 -8 -46z m52 -36 c-13 -14 -17 -7
-24 44 l-6 45 20 -40 c11 -25 15 -44 10 -49z"/>
<path d="M10260 1140 c-11 -11 -20 -29 -20 -40 0 -26 34 -60 60 -60 26 0 60
34 60 60 0 26 -34 60 -60 60 -11 0 -29 -9 -40 -20z"/>
<path d="M10367 1057 c-5 -15 78 -51 94 -41 18 11 8 25 -26 40 -43 17 -61 18
-68 1z"/>
</g>
</svg>
