<?xml version="1.0" standalone="no"?>
<!DOCTYPE svg PUBLIC "-//W3C//DTD SVG 20010904//EN"
 "http://www.w3.org/TR/2001/REC-SVG-20010904/DTD/svg10.dtd">
<svg version="1.0" xmlns="http://www.w3.org/2000/svg"
 width="52.000000pt" height="52.000000pt" viewBox="0 0 52.000000 52.000000"
 preserveAspectRatio="xMidYMid meet">

<g transform="translate(0.000000,52.000000) scale(0.100000,-0.100000)"
fill="#000000" stroke="none">
<path d="M240 450 c-8 -5 -22 -7 -31 -5 -8 3 -26 -6 -40 -21 -18 -20 -24 -37
-24 -72 0 -26 4 -56 9 -67 l8 -20 8 20 c5 11 9 32 9 46 1 23 17 39 39 39 4 0
13 -9 20 -20 11 -18 9 -24 -13 -44 l-25 -23 21 -18 c19 -18 20 -18 26 3 9 34
23 26 23 -14 0 -20 -4 -33 -10 -29 -6 3 -7 -1 -4 -9 4 -9 0 -18 -10 -22 -14
-5 -14 -8 -1 -21 20 -19 19 -33 -2 -33 -13 -1 -10 -5 10 -16 36 -19 36 -38 1
-33 -4 0 -10 -5 -15 -12 -7 -12 -14 -9 -75 36 -10 7 -20 3 -36 -13 l-23 -23
25 -19 c54 -41 151 -50 215 -21 l40 18 -30 16 c-60 32 -59 30 -36 83 12 27 26
56 31 65 5 10 9 40 8 67 0 28 3 56 7 61 12 20 -26 79 -60 95 -38 19 -45 19
-65 6z"/>
</g>
</svg>
