<?xml version="1.0" standalone="no"?>
<!DOCTYPE svg PUBLIC "-//W3C//DTD SVG 20010904//EN"
 "http://www.w3.org/TR/2001/REC-SVG-20010904/DTD/svg10.dtd">
<svg version="1.0" xmlns="http://www.w3.org/2000/svg"
 width="52.000000pt" height="52.000000pt" viewBox="0 0 52.000000 52.000000"
 preserveAspectRatio="xMidYMid meet">

<g transform="translate(0.000000,52.000000) scale(0.100000,-0.100000)"
fill="#000000" stroke="none">
<path d="M191 384 c-33 -42 -25 -58 13 -29 47 36 94 11 110 -57 8 -37 36 -26
36 14 0 21 -10 40 -34 64 -44 44 -94 47 -125 8z"/>
<path d="M245 311 c-6 -11 13 -26 22 -17 4 3 0 6 -8 6 -11 0 -11 2 1 10 9 6
10 10 3 10 -6 0 -14 -4 -18 -9z"/>
<path d="M183 289 c-2 -17 1 -18 12 -9 8 7 12 16 9 21 -9 16 -20 10 -21 -12z"/>
<path d="M199 188 c18 -24 10 -32 -54 -58 -30 -12 -55 -26 -55 -31 0 -16 66
-57 110 -69 76 -20 176 6 224 59 18 20 18 20 -40 46 -57 25 -59 25 -74 7 -25
-32 -51 -41 -77 -29 -32 14 -25 27 31 55 26 13 45 26 43 29 -3 2 -14 0 -25 -6
-27 -15 -65 -14 -82 2 -12 10 -12 9 -1 -5z"/>
</g>
</svg>
