<?xml version="1.0" standalone="no"?>
<!DOCTYPE svg PUBLIC "-//W3C//DTD SVG 20010904//EN"
 "http://www.w3.org/TR/2001/REC-SVG-20010904/DTD/svg10.dtd">
<svg version="1.0" xmlns="http://www.w3.org/2000/svg"
 width="52.000000pt" height="52.000000pt" viewBox="0 0 52.000000 52.000000"
 preserveAspectRatio="xMidYMid meet">

<g transform="translate(0.000000,52.000000) scale(0.100000,-0.100000)"
fill="#000000" stroke="none">
<path d="M223 492 c-7 -4 -26 -25 -42 -47 -24 -33 -27 -43 -19 -67 14 -39 23
-35 34 14 13 58 33 68 81 41 45 -26 57 -53 20 -46 -31 6 -40 -8 -27 -41 7 -21
6 -26 -5 -26 -18 0 -20 -16 -4 -26 7 -4 8 -9 1 -13 -5 -3 -12 -17 -13 -31 -3
-21 1 -26 22 -28 21 -2 28 2 33 22 3 15 4 36 1 49 -4 12 -1 36 5 51 11 30 20
30 24 0 2 -10 8 -20 14 -22 7 -2 10 2 6 11 -3 8 -1 18 5 22 21 12 12 70 -16
103 -29 33 -94 52 -120 34z"/>
<path d="M215 373 c2 -10 4 -22 4 -26 2 -14 18 2 24 23 4 15 0 20 -13 20 -12
0 -17 -6 -15 -17z"/>
<path d="M320 180 c-36 -28 -93 -36 -113 -16 -14 15 -20 14 -71 -5 -31 -11
-59 -25 -63 -31 -3 -7 12 -28 35 -49 69 -61 173 -74 256 -33 39 20 96 74 96
91 0 10 -96 64 -111 62 -2 0 -15 -9 -29 -19z"/>
</g>
</svg>
