<?xml version="1.0" standalone="no"?>
<!DOCTYPE svg PUBLIC "-//W3C//DTD SVG 20010904//EN"
 "http://www.w3.org/TR/2001/REC-SVG-20010904/DTD/svg10.dtd">
<svg version="1.0" xmlns="http://www.w3.org/2000/svg"
 width="52.000000pt" height="52.000000pt" viewBox="0 0 52.000000 52.000000"
 preserveAspectRatio="xMidYMid meet">

<g transform="translate(0.000000,52.000000) scale(0.100000,-0.100000)"
fill="#000000" stroke="none">
<path d="M221 477 c-19 -7 -37 -19 -41 -27 -4 -8 -17 -36 -29 -62 -11 -27 -24
-48 -28 -48 -5 0 -9 -28 -11 -61 -3 -69 13 -99 55 -99 30 0 42 -29 19 -45 -9
-7 -34 -15 -56 -19 -22 -3 -40 -10 -40 -16 0 -14 61 -58 93 -65 26 -7 38 7 17
20 -21 13 -9 23 33 28 59 7 143 40 173 68 25 23 26 28 21 98 l-6 73 35 -5 c39
-7 39 -7 20 38 -13 30 -20 35 -49 35 -28 0 -40 7 -61 35 -42 54 -89 71 -145
52z m69 -77 c23 -23 25 -42 8 -69 -9 -14 -8 -23 5 -42 31 -43 16 -119 -23
-119 -25 0 -61 40 -77 85 -11 31 -10 33 13 38 21 4 24 1 24 -25 0 -19 4 -28
13 -25 6 2 12 9 11 15 -1 7 -2 25 -2 41 -2 22 -10 34 -29 43 -35 17 -39 32
-14 57 26 26 46 26 71 1z"/>
<path d="M233 218 c4 -14 36 -12 52 3 5 5 -4 9 -24 9 -22 0 -31 -4 -28 -12z"/>
<path d="M40 345 c0 -8 5 -15 10 -15 6 0 10 7 10 15 0 8 -4 15 -10 15 -5 0
-10 -7 -10 -15z"/>
<path d="M408 93 c7 -3 16 -2 19 1 4 3 -2 6 -13 5 -11 0 -14 -3 -6 -6z"/>
</g>
</svg>
