<?xml version="1.0" standalone="no"?>
<!DOCTYPE svg PUBLIC "-//W3C//DTD SVG 20010904//EN"
 "http://www.w3.org/TR/2001/REC-SVG-20010904/DTD/svg10.dtd">
<svg version="1.0" xmlns="http://www.w3.org/2000/svg"
 width="547.000000pt" height="870.000000pt" viewBox="0 0 547.000000 870.000000"
 preserveAspectRatio="xMidYMid meet">

<g transform="translate(0.000000,870.000000) scale(0.100000,-0.100000)"
fill="#000000" stroke="none">
<path d="M2369 8669 c-197 -29 -330 -140 -390 -324 -20 -64 -22 -94 -27 -357
-2 -159 -8 -288 -13 -288 -5 0 -9 -54 -9 -120 0 -73 4 -120 10 -120 6 0 10
-41 10 -104 0 -59 -4 -108 -10 -111 -6 -4 -10 -83 -10 -206 l0 -199 -707 0
c-446 0 -732 -4 -773 -11 -88 -14 -202 -70 -261 -129 -26 -26 -62 -76 -79
-110 -52 -103 -60 -163 -60 -467 0 -236 -2 -273 -15 -273 -12 0 -15 -20 -15
-120 0 -100 3 -120 15 -120 12 0 15 -18 15 -105 0 -63 -4 -105 -10 -105 -6 0
-10 -87 -10 -240 0 -153 4 -240 10 -240 6 0 10 -27 10 -60 0 -33 -4 -60 -10
-60 -6 0 -10 -87 -10 -240 0 -153 4 -240 10 -240 7 0 10 -558 10 -1652 0
-1802 -2 -1727 57 -1848 54 -111 180 -209 309 -241 27 -7 65 -23 84 -36 19
-13 60 -31 90 -41 50 -16 123 -17 880 -14 795 3 1116 11 1246 32 143 23 258
108 317 234 69 146 77 227 86 851 6 394 11 529 21 555 26 69 71 128 123 164
94 64 115 67 683 76 524 9 638 17 729 51 127 48 218 148 265 293 41 127 41
118 52 2626 11 2549 9 2696 -32 2800 -11 30 -30 88 -40 128 -40 152 -125 264
-244 322 -120 59 -121 59 -1236 58 -558 0 -1040 -4 -1071 -9z m329 -152 c27
-32 -54 -87 -128 -87 -59 0 -134 -20 -121 -33 7 -7 15 -6 24 2 34 28 67 -35
35 -67 -9 -9 -9 -12 -1 -12 7 0 24 -11 39 -25 22 -21 25 -27 14 -40 -18 -21
-28 -19 -32 7 -3 24 -67 66 -100 67 -10 1 -18 5 -18 9 0 10 -36 9 -46 -1 -4
-4 -14 -7 -23 -7 -13 0 -13 2 -2 9 24 16 -1 20 -131 24 -23 1 -45 -6 -57 -18
-30 -26 -26 -5 7 44 38 57 113 108 176 120 28 6 60 13 71 15 11 2 79 4 151 5
98 1 134 -2 142 -12z m1542 -7 c-36 -12 -62 -12 -55 0 3 6 23 10 43 9 33 -1
34 -2 12 -9z m414 -106 c9 -3 16 -12 16 -20 0 -8 5 -14 10 -14 6 0 3 -11 -6
-25 -16 -24 -21 -26 -93 -23 -75 3 -76 3 -79 31 -5 44 13 57 78 57 32 0 65 -3
74 -6z m-195 -13 c11 -7 9 -14 -12 -35 -26 -26 -47 -34 -47 -17 0 5 -7 17 -17
26 -14 14 -14 18 -2 26 18 11 60 11 78 0z m-169 -39 c0 -26 -3 -28 -45 -28
-37 0 -45 3 -45 19 0 13 5 17 15 13 8 -3 15 -2 15 2 0 9 43 29 53 25 4 -3 7
-16 7 -31z m-2124 -47 c-27 -25 -46 -32 -46 -17 0 8 50 41 64 42 5 0 -3 -11
-18 -25z m2428 -346 c-3 -5 -10 -7 -15 -3 -5 3 -7 10 -3 15 3 5 10 7 15 3 5
-3 7 -10 3 -15z m-2329 -29 c-18 -20 -17 -20 41 -22 l59 -1 -59 -6 c-52 -5
-57 -8 -43 -20 10 -7 17 -18 17 -24 0 -6 -13 2 -30 18 l-30 29 22 23 c26 28
48 31 23 3z m2329 -31 c-3 -5 -10 -7 -15 -3 -5 3 -7 10 -3 15 3 5 10 7 15 3 5
-3 7 -10 3 -15z m6 -49 c0 -5 -4 -10 -10 -10 -5 0 -10 5 -10 10 0 6 5 10 10
10 6 0 10 -4 10 -10z m-1170 -1050 c0 -5 -4 -10 -10 -10 -5 0 -10 5 -10 10 0
6 5 10 10 10 6 0 10 -4 10 -10z m-2622 -122 c5 -7 12 -36 14 -64 6 -59 34
-106 81 -132 29 -16 82 -17 652 -17 602 0 621 1 653 20 45 27 71 73 79 134 3
28 12 56 19 62 21 17 325 6 391 -15 57 -18 144 -90 170 -140 44 -85 43 -9 43
-2404 l0 -2272 -43 -19 c-23 -11 -49 -22 -58 -25 -12 -3 -15 -12 -12 -30 4
-21 2 -26 -13 -23 -11 1 -24 6 -30 10 -7 4 -15 0 -18 -8 -4 -12 -10 -14 -25
-5 -14 7 -22 7 -26 -1 -4 -6 -21 -9 -39 -8 -54 4 -174 -34 -191 -61 -3 -5 -14
-10 -23 -10 -10 0 -32 -15 -50 -34 -18 -19 -60 -55 -93 -80 -56 -42 -63 -45
-79 -31 -9 8 -20 15 -23 15 -4 0 -7 -47 -7 -105 0 -93 2 -105 18 -106 9 -1
174 0 365 1 l349 1 -4 -188 c-3 -179 -4 -191 -30 -245 -34 -72 -95 -131 -166
-160 l-57 -23 -1100 0 -1100 0 -56 23 c-115 46 -179 132 -199 267 -7 48 -10
907 -8 2740 3 2577 4 2672 22 2721 41 115 135 194 251 213 84 14 331 13 343
-1z m2436 -154 c9 -8 16 -22 16 -30 0 -16 -36 -19 -45 -4 -3 6 -17 10 -31 10
-36 0 -30 -27 9 -35 73 -15 97 -55 57 -95 -29 -29 -102 -28 -132 2 l-22 22 24
6 c15 4 31 1 39 -7 17 -17 46 -13 46 7 0 9 -17 20 -40 28 -22 7 -46 20 -53 29
-14 20 -7 53 16 71 23 17 97 15 116 -4z m-182 -61 c-5 -25 -6 -24 -18 18 -17
56 -17 58 5 32 12 -15 17 -31 13 -50z m298 -317 c0 -15 7 -26 20 -29 11 -3 20
-10 20 -17 0 -7 -9 -14 -20 -17 -17 -5 -20 -14 -20 -59 0 -40 4 -54 14 -54 19
0 30 -32 14 -42 -17 -10 -23 -10 -52 3 -28 13 -36 35 -36 102 0 26 -4 47 -10
47 -16 0 -12 37 5 44 8 3 15 15 15 26 0 15 7 20 25 20 20 0 25 -5 25 -24z
m-128 -43 c14 -13 18 -31 18 -95 0 -77 0 -78 -25 -78 -24 0 -25 2 -25 70 0 66
-1 70 -25 76 -15 4 -32 1 -40 -6 -26 -21 -16 1 11 26 29 28 60 31 86 7z m323
11 c19 -8 45 -55 45 -84 0 -18 -6 -20 -65 -20 -36 0 -65 -4 -65 -8 0 -26 61
-44 75 -22 7 11 39 9 43 -3 6 -18 0 -28 -28 -42 -42 -22 -74 -19 -109 11 -27
22 -31 32 -31 75 0 40 5 55 25 74 24 25 73 33 110 19z m215 -14 c11 -11 20
-24 20 -30 0 -14 -36 -13 -59 2 -20 12 -56 4 -47 -11 3 -5 26 -14 51 -20 56
-14 72 -39 50 -80 -16 -33 -57 -47 -105 -36 -27 6 -60 37 -60 57 0 12 48 9 69
-4 20 -12 56 -4 47 11 -3 4 -22 11 -42 14 -20 3 -42 11 -50 18 -22 18 -17 66
8 83 32 23 94 20 118 -4z m-160 -360 c22 -7 20 -8 -15 -9 -22 0 -47 4 -55 9
-11 7 -8 9 15 9 17 -1 41 -5 55 -9z m-388 -70 c-6 -43 -12 -37 -12 13 0 25 4
37 8 29 5 -7 7 -26 4 -42z m92 32 c2 -4 -5 -9 -17 -9 -17 -2 -19 0 -7 7 18 12
18 12 24 2z m-56 -29 c-2 -14 -10 -28 -18 -30 -12 -4 -13 -3 -1 5 8 6 12 19 8
31 -3 12 -1 21 5 21 5 0 8 -12 6 -27z m-71 -15 c-3 -7 -5 -2 -5 12 0 14 2 19
5 13 2 -7 2 -19 0 -25z m141 5 c-2 -11 -14 -19 -28 -20 -25 -3 -25 -3 -2 7 27
12 29 24 2 17 -11 -3 -18 -1 -14 4 3 5 14 9 25 9 14 0 19 -6 17 -17z m1052
-39 c0 -2 -7 -4 -15 -4 -8 0 -15 4 -15 10 0 5 7 7 15 4 8 -4 15 -8 15 -10z
m177 -10 c-3 -3 -12 -4 -19 -1 -8 3 -5 6 6 6 11 1 17 -2 13 -5z m-45 -36 c-6
-6 -15 -8 -19 -4 -4 4 -1 11 7 16 19 12 27 3 12 -12z m-887 2 c3 -5 1 -10 -4
-10 -6 0 -11 5 -11 10 0 6 2 10 4 10 3 0 8 -4 11 -10z m1002 -33 c-15 -6 -25
-17 -23 -24 3 -7 -1 -10 -10 -6 -7 3 -14 8 -14 13 0 9 41 29 60 28 8 0 2 -5
-13 -11z m-1004 -12 c4 -8 2 -17 -3 -20 -6 -4 -10 3 -10 14 0 25 6 27 13 6z
m-113 -16 c0 -5 -4 -9 -10 -9 -5 0 -10 7 -10 16 0 8 5 12 10 9 6 -3 10 -10 10
-16z m140 -53 c0 -2 -6 -6 -14 -9 -8 -3 -16 2 -19 14 -4 16 -2 17 14 8 10 -5
19 -11 19 -13z m-99 -43 c20 -10 65 -19 107 -21 60 -4 76 -1 93 14 17 16 22
16 29 4 9 -14 15 -6 10 15 -1 5 7 2 18 -8 22 -20 37 -23 26 -4 -5 8 -2 7 9 -2
14 -11 99 -14 455 -17 240 -1 449 -3 465 -3 l27 -1 0 -1192 c0 -707 -4 -1227
-10 -1277 -16 -141 -77 -233 -189 -285 -45 -21 -55 -21 -758 -24 l-713 -3 0
106 0 105 38 0 c20 0 67 3 105 7 l67 6 0 78 c0 64 -3 79 -15 79 -11 0 -15 12
-15 51 0 41 3 50 15 45 13 -4 15 8 15 79 l0 85 -52 0 c-29 0 -77 3 -105 6
l-53 7 0 99 c0 95 1 101 26 120 31 25 29 62 -4 66 l-24 4 7 336 c3 201 10 338
15 340 6 2 10 18 9 35 -1 31 -1 31 -9 7 -5 -14 -8 85 -9 228 l-1 252 63 0 c76
0 123 13 154 42 26 24 31 53 8 44 -24 -9 -45 4 -37 22 5 15 4 15 -12 0 -24
-25 -33 -22 -33 7 0 15 5 25 14 25 8 0 11 5 8 10 -4 7 -13 7 -26 0 -15 -9 -19
-7 -19 5 0 8 4 15 9 15 5 0 11 11 13 24 4 19 1 22 -14 18 -10 -2 -18 -9 -18
-15 0 -6 -3 -7 -6 -4 -4 4 -1 13 5 21 8 10 9 16 1 21 -5 3 -10 11 -10 17 0 7
6 6 15 -2 12 -10 15 -9 15 4 0 10 4 15 9 11 5 -3 12 -1 15 4 3 5 -1 11 -9 15
-8 3 -15 1 -15 -3 0 -5 -11 -8 -25 -7 -18 1 -25 7 -25 21 0 15 3 16 12 7 19
-19 34 -14 55 16 19 28 69 41 59 15 -3 -7 0 -13 7 -14 7 0 3 -4 -8 -9 -13 -6
-15 -9 -5 -9 19 0 50 23 50 37 0 6 -7 9 -15 6 -9 -4 -15 0 -15 9 0 9 -3 23 -6
32 -8 20 18 16 28 -5 5 -8 5 1 2 20 -8 44 -30 70 -60 70 -13 0 -25 4 -28 9 -4
5 -40 12 -81 16 l-75 7 0 69 0 69 98 2 c53 0 104 0 112 0 31 -3 61 8 53 21 -5
9 -3 9 8 0 21 -16 125 -28 133 -14 4 7 -1 11 -13 11 -12 0 -21 5 -21 10 0 14
12 12 51 -7z m-181 3 c0 -3 -4 -8 -10 -11 -5 -3 -10 -1 -10 4 0 6 5 11 10 11
6 0 10 -2 10 -4z m-135 -515 c-3 -6 -11 -8 -17 -5 -6 4 -5 9 3 15 16 10 23 4
14 -10z m35 -36 c0 -12 -19 -12 -23 0 -4 9 -1 12 9 8 7 -3 14 -7 14 -8z m-139
-1358 c-10 -9 -11 -8 -5 6 3 10 9 15 12 12 3 -3 0 -11 -7 -18z m-314 -1754
c-3 -10 -5 -4 -5 12 0 17 2 24 5 18 2 -7 2 -21 0 -30z m68 1 c0 -20 -4 -24
-20 -20 -11 3 -23 6 -27 6 -5 0 -8 10 -8 23 0 20 4 23 28 20 21 -4 27 -10 27
-29z m25 -1 c0 -20 -3 -24 -11 -16 -7 7 -9 19 -6 27 10 24 17 19 17 -11z"/>
<path d="M2364 8409 c-3 -6 3 -13 15 -16 12 -3 21 -9 21 -14 0 -5 7 -6 16 -2
11 4 12 8 4 13 -7 4 -10 12 -7 17 3 5 -5 10 -18 11 -13 1 -27 -3 -31 -9z"/>
<path d="M2255 8386 c-19 -14 -17 -15 23 -16 31 0 42 4 40 13 -7 18 -40 20
-63 3z"/>
<path d="M2480 8370 c0 -11 5 -20 10 -20 6 0 10 9 10 20 0 11 -4 20 -10 20 -5
0 -10 -9 -10 -20z"/>
<path d="M4408 8373 c6 -2 18 -2 25 0 6 3 1 5 -13 5 -14 0 -19 -2 -12 -5z"/>
<path d="M435 6551 c-9 -15 3 -31 23 -31 15 -1 14 -3 -3 -16 l-20 -16 20 4
c26 4 29 61 3 66 -9 2 -19 -2 -23 -7z m35 -11 c0 -5 -7 -10 -15 -10 -8 0 -15
5 -15 10 0 6 7 10 15 10 8 0 15 -4 15 -10z"/>
<path d="M533 6553 c14 -4 16 -8 6 -19 -8 -10 -8 -14 0 -14 15 0 14 -18 -1
-23 -8 -2 -7 -3 2 -3 9 1 16 13 18 34 3 28 0 32 -20 31 -18 -1 -19 -2 -5 -6z"/>
<path d="M575 6539 c-10 -30 18 -58 40 -39 22 18 15 54 -12 58 -15 2 -23 -3
-28 -19z m37 -1 c6 -17 -1 -38 -13 -38 -5 0 -9 11 -9 25 0 26 14 34 22 13z"/>
<path d="M2517 6548 c-15 -11 -10 -13 33 -13 43 0 48 2 33 13 -9 6 -24 12 -33
12 -9 0 -24 -6 -33 -12z"/>
<path d="M2652 6523 c3 -27 5 -28 68 -28 63 0 65 1 68 28 l3 27 -71 0 -71 0 3
-27z"/>
<path d="M2400 6509 c0 -17 4 -28 10 -24 6 3 10 17 10 31 0 13 -4 24 -10 24
-5 0 -10 -14 -10 -31z"/>
<path d="M2364 6516 c-4 -10 -2 -22 4 -28 8 -8 13 -7 18 6 4 10 2 22 -4 28 -8
8 -13 7 -18 -6z"/>
<path d="M2520 6522 c0 -5 14 -9 30 -9 17 0 30 4 30 9 0 4 -13 8 -30 8 -16 0
-30 -4 -30 -8z"/>
<path d="M2334 6509 c-3 -6 -1 -16 5 -22 8 -8 11 -5 11 11 0 24 -5 28 -16 11z"/>
<path d="M2540 6500 c0 -5 5 -10 10 -10 6 0 10 5 10 10 0 6 -4 10 -10 10 -5 0
-10 -4 -10 -10z"/>
<path d="M2616 6018 c-8 -13 -16 -39 -18 -58 l-3 -35 50 0 c50 0 50 0 47 30
-2 16 -7 32 -12 35 -4 3 -9 14 -11 25 -6 28 -35 30 -53 3z"/>
<path d="M2638 5903 c7 -3 16 -2 19 1 4 3 -2 6 -13 5 -11 0 -14 -3 -6 -6z"/>
<path d="M1157 5524 c-8 -8 1 -24 14 -24 5 0 9 7 9 15 0 15 -12 20 -23 9z"/>
<path d="M347 5507 c-29 -20 -32 -77 -7 -110 37 -47 110 -27 110 31 0 18 -6
22 -30 22 -16 0 -30 -4 -30 -10 0 -5 7 -10 15 -10 8 0 15 -7 15 -15 0 -23 -47
-19 -60 6 -14 25 -6 65 15 73 18 6 45 -2 45 -15 0 -5 7 -9 15 -9 22 0 19 27
-4 40 -27 14 -63 13 -84 -3z"/>
<path d="M730 5445 c0 -60 3 -75 15 -75 12 0 15 15 15 75 0 60 -3 75 -15 75
-12 0 -15 -15 -15 -75z"/>
<path d="M1480 5497 c0 -20 -4 -23 -30 -19 -25 4 -31 0 -41 -24 -18 -46 6 -79
59 -81 l42 -2 0 75 c0 59 -3 74 -15 74 -9 0 -15 -9 -15 -23z m-2 -66 c5 -30
-19 -47 -34 -25 -16 20 -6 56 15 52 9 -2 18 -14 19 -27z"/>
<path d="M601 5489 c-8 -14 -9 -24 -3 -28 6 -3 12 -24 14 -46 2 -33 7 -41 26
-43 22 -3 30 12 12 23 -14 9 -12 62 3 69 10 5 10 7 0 12 -7 3 -13 12 -13 20 0
21 -23 17 -39 -7z"/>
<path d="M479 5453 c-12 -31 1 -70 26 -79 20 -8 65 4 65 17 0 7 -10 9 -24 5
-15 -4 -28 0 -36 9 -11 13 -7 15 29 15 42 0 48 8 31 41 -8 13 -21 19 -46 19
-28 0 -36 -5 -45 -27z m71 -3 c0 -5 -12 -10 -26 -10 -14 0 -23 4 -19 10 3 6
15 10 26 10 10 0 19 -4 19 -10z"/>
<path d="M780 5424 c0 -40 4 -54 14 -54 10 0 16 14 18 42 2 31 8 44 20 46 13
3 17 -6 20 -39 2 -24 9 -44 16 -47 10 -3 12 9 10 49 l-3 54 -47 2 -48 2 0 -55z"/>
<path d="M914 5466 c-9 -24 2 -44 27 -48 12 -2 24 -9 27 -17 3 -10 -3 -12 -27
-6 -37 8 -44 -11 -7 -21 39 -9 66 4 66 32 0 19 -6 26 -30 31 -16 3 -30 10 -30
15 0 6 13 7 31 3 24 -6 30 -4 27 6 -7 21 -77 24 -84 5z"/>
<path d="M1020 5404 c0 -59 3 -74 15 -74 9 0 15 9 15 25 0 22 3 24 29 19 33
-7 51 15 51 59 0 34 -18 46 -68 45 l-42 0 0 -74z m78 25 c2 -16 -3 -29 -12
-32 -20 -8 -39 18 -31 43 9 29 39 21 43 -11z"/>
<path d="M1150 5425 c0 -42 3 -55 15 -55 12 0 15 13 15 55 0 42 -3 55 -15 55
-12 0 -15 -13 -15 -55z"/>
<path d="M1210 5425 c0 -42 3 -55 15 -55 11 0 15 11 15 41 0 32 4 42 20 46 32
9 23 23 -15 23 l-35 0 0 -55z"/>
<path d="M1288 5455 c-13 -29 1 -71 27 -81 20 -8 65 4 65 17 0 7 -10 9 -24 5
-15 -4 -28 0 -36 9 -11 13 -7 15 29 15 22 0 41 5 41 11 0 52 -80 71 -102 24z
m67 -5 c4 -6 -5 -10 -20 -10 -15 0 -24 4 -20 10 3 6 12 10 20 10 8 0 17 -4 20
-10z"/>
<path d="M485 5133 c-57 -13 -86 -27 -113 -54 -54 -56 -57 -82 -57 -569 l0
-445 45 -12 45 -13 -42 3 c-53 3 -53 4 -52 -188 1 -339 30 -380 281 -396 180
-11 819 -3 882 11 61 14 88 28 80 42 -4 6 -3 8 4 4 17 -10 50 41 62 98 7 36
10 263 8 717 l-3 664 -25 45 c-18 33 -38 52 -75 70 l-50 25 -485 1 c-267 1
-494 0 -505 -3z m20 -1234 c-9 -14 -41 -11 -54 5 -10 11 -8 15 6 18 23 6 55
-10 48 -23z m42 5 c-3 -3 -12 -4 -19 -1 -8 3 -5 6 6 6 11 1 17 -2 13 -5z m-23
-49 c15 -11 16 -15 5 -15 -8 0 -19 4 -24 9 -6 5 -21 11 -35 14 -22 4 -22 4 5
5 17 1 39 -5 49 -13z m-95 -4 c7 -5 12 -13 10 -18 -2 -5 -12 -1 -21 9 -19 19
-13 24 11 9z m185 -12 c-3 -5 -13 -13 -23 -19 -15 -8 -18 -6 -16 13 3 27 1 26
25 20 11 -3 17 -9 14 -14z m-206 -16 c-2 -12 4 -18 17 -19 11 -1 40 -3 65 -5
31 -3 45 0 45 9 0 6 5 12 10 12 6 0 10 -5 10 -11 0 -7 9 -15 20 -19 19 -7 19
-7 -3 -21 -12 -8 -22 -20 -22 -27 0 -8 -9 -12 -22 -10 -13 2 -23 10 -23 18 0
19 -67 41 -78 26 -10 -14 -47 33 -40 51 8 19 24 16 21 -4z m297 -14 c5 -6 3
-9 -7 -9 -9 0 -22 -2 -30 -5 -7 -3 -19 4 -25 15 -12 18 -11 19 20 13 17 -3 36
-10 42 -14z m-85 -24 c0 -8 -2 -15 -4 -15 -2 0 -6 7 -10 15 -3 8 -1 15 4 15 6
0 10 -7 10 -15z m100 -59 c0 -3 -4 -8 -10 -11 -5 -3 -10 -1 -10 4 0 6 5 11 10
11 6 0 10 -2 10 -4z m-89 -65 c0 -10 4 -7 9 6 11 28 50 26 61 -3 7 -17 8 -16
8 6 1 27 16 18 24 -15 4 -18 5 -18 6 3 1 21 21 33 21 12 0 -5 5 -10 11 -10 5
0 8 4 5 9 -7 11 22 23 35 15 5 -3 9 -16 9 -30 0 -19 -5 -24 -25 -24 -14 0 -25
6 -25 13 0 8 -3 8 -8 1 -11 -16 -41 -24 -48 -13 -4 6 -12 2 -20 -10 -16 -22
-36 -19 -67 8 -15 12 -22 13 -38 3 -16 -10 -19 -10 -19 3 0 9 7 30 16 47 16
30 17 31 30 13 8 -10 14 -26 15 -34z m340 33 c11 -14 10 -16 -11 -12 -17 2
-26 -2 -28 -14 -3 -14 3 -18 25 -17 15 0 37 4 48 9 19 8 19 9 1 9 -16 1 -17 4
-8 13 10 10 17 10 32 0 21 -13 27 -3 10 14 -7 7 -6 11 4 11 8 0 18 -7 22 -16
5 -14 7 -13 14 4 8 19 9 19 9 -3 1 -20 3 -21 21 -10 15 10 22 10 31 1 9 -9 15
-8 26 3 10 10 19 11 33 4 13 -7 21 -7 25 1 13 19 30 2 30 -29 0 -36 -24 -45
-26 -9 l-2 22 -4 -22 c-5 -26 -23 -31 -23 -8 0 8 -4 15 -10 15 -5 0 -10 -7
-10 -15 0 -18 -20 -20 -21 -2 0 10 -2 10 -6 0 -7 -19 -40 -16 -52 5 -10 16
-10 16 -11 0 0 -21 -40 -25 -40 -5 0 9 -2 9 -8 0 -4 -7 -31 -11 -67 -10 -54 2
-60 4 -63 25 -6 44 33 67 59 36z m-96 -14 c3 -5 -2 -11 -12 -11 -17 -1 -17 -2
0 -6 27 -7 21 -33 -8 -33 -20 0 -25 5 -25 23 0 13 3 27 7 30 10 10 31 8 38 -3z
m433 -2 c8 -8 15 -8 26 1 8 7 19 10 24 7 17 -10 20 -45 6 -56 -16 -14 -34 -5
-34 16 0 8 -5 12 -10 9 -6 -4 -8 -10 -5 -15 8 -12 -32 -19 -44 -7 -14 14 -14
30 1 45 15 15 21 15 36 0z m262 -48 c0 -13 -20 -13 -40 0 -12 8 -9 10 13 10
15 0 27 -4 27 -10z m-313 -82 c-3 -8 -6 -5 -6 6 -1 11 2 17 5 13 3 -3 4 -12 1
-19z"/>
<path d="M660 3660 c0 -5 5 -10 10 -10 6 0 10 5 10 10 0 6 -4 10 -10 10 -5 0
-10 -4 -10 -10z"/>
<path d="M1903 5087 c11 -28 -8 -38 -51 -28 -48 10 -49 10 -68 -62 -10 -38
-14 -122 -13 -307 0 -292 7 -332 69 -382 56 -44 115 -50 484 -46 320 3 332 4
373 25 95 51 106 99 101 445 -3 226 -5 267 -20 293 -34 59 -33 59 -64 30 -16
-14 -41 -29 -57 -32 -16 -3 -31 -12 -34 -19 -3 -7 -18 -11 -39 -9 -19 2 -37
-1 -40 -6 -3 -5 -15 -9 -27 -9 -16 0 -18 -3 -9 -9 10 -6 7 -10 -13 -15 -14 -4
-42 -22 -61 -41 -34 -34 -64 -46 -64 -24 0 5 -6 7 -12 4 -7 -4 -3 2 10 13 26
24 28 32 6 32 -8 0 -12 -4 -9 -10 3 -6 -4 -10 -16 -10 -21 0 -22 1 -4 20 17
19 17 20 1 20 -15 0 -15 2 -4 13 7 8 20 16 28 20 9 3 10 6 3 6 -7 1 -13 5 -13
10 0 5 10 7 23 4 19 -4 20 -3 5 6 -23 15 -77 21 -84 9 -4 -6 0 -14 7 -19 9 -6
3 -8 -18 -6 -17 2 -39 9 -47 16 -8 7 -21 11 -28 8 -9 -4 -7 -6 3 -6 9 -1 19
-7 22 -15 4 -10 0 -12 -13 -9 -11 3 -22 14 -26 25 -4 14 -13 19 -32 17 -15 -2
-33 0 -40 5 -8 5 -21 1 -32 -9 -13 -12 -23 -14 -36 -7 -16 9 -15 11 4 21 20
11 21 12 4 29 -23 22 -88 26 -96 5 -4 -9 -13 -13 -22 -9 -8 3 -12 2 -9 -4 3
-6 2 -10 -4 -10 -5 0 -13 9 -16 20 -3 11 -11 20 -17 20 -5 0 -8 -6 -5 -13z
m141 -23 c3 -8 2 -12 -4 -9 -6 3 -10 10 -10 16 0 14 7 11 14 -7z m306 -53 c0
-10 -7 -21 -15 -24 -12 -5 -12 -2 -3 18 13 30 18 31 18 6z"/>
<path d="M2410 4979 c0 -5 5 -7 10 -4 6 3 10 8 10 11 0 2 -4 4 -10 4 -5 0 -10
-5 -10 -11z"/>
<path d="M1885 4106 c-38 -17 -90 -72 -104 -109 -17 -43 -14 -380 2 -420 19
-44 89 -105 129 -112 18 -3 198 -5 400 -3 l366 3 39 31 c21 16 48 50 61 74 20
41 22 57 22 220 0 163 -2 179 -22 220 -13 24 -40 58 -61 74 l-39 31 -381 2
c-305 2 -388 0 -412 -11z m355 -294 c0 -10 -5 -23 -12 -30 -9 -9 -9 -12 0 -12
7 0 12 -4 12 -10 0 -5 -11 -10 -25 -10 -31 0 -31 7 -2 38 l22 25 -22 -6 c-22
-5 -30 3 -16 16 14 14 43 7 43 -11z m65 -22 c0 -28 -4 -35 -19 -35 -11 0 -21
6 -24 13 -2 7 2 10 10 7 9 -4 14 2 14 15 0 11 -6 20 -14 20 -7 0 -10 5 -7 11
15 23 40 4 40 -31z m62 -15 c-13 -13 -16 -13 -27 0 -10 12 -10 18 0 30 11 13
14 13 27 0 13 -13 13 -17 0 -30z"/>
<path d="M1520 3240 c0 -5 5 -10 10 -10 6 0 10 5 10 10 0 6 -4 10 -10 10 -5 0
-10 -4 -10 -10z"/>
<path d="M766 3225 c-8 -22 0 -34 32 -46 19 -7 22 -13 14 -21 -9 -9 -15 -9
-24 0 -14 14 -28 16 -28 2 0 -18 39 -31 60 -20 29 15 26 48 -5 56 -14 3 -25
11 -25 16 0 6 11 7 26 4 19 -5 25 -3 22 6 -7 20 -64 22 -72 3z"/>
<path d="M1250 3190 c0 -27 5 -50 10 -50 6 0 10 23 10 50 0 28 -4 50 -10 50
-5 0 -10 -22 -10 -50z"/>
<path d="M1320 3203 c0 -49 12 -65 45 -65 15 0 31 6 36 13 12 19 11 89 -1 89
-5 0 -10 -15 -10 -33 0 -18 -5 -38 -12 -45 -18 -18 -38 5 -38 44 0 19 -4 34
-10 34 -5 0 -10 -17 -10 -37z"/>
<path d="M1480 3225 c0 -9 -6 -12 -16 -8 -17 6 -44 -20 -44 -43 0 -23 28 -42
54 -37 24 5 26 10 26 54 0 27 -4 49 -10 49 -5 0 -10 -7 -10 -15z m-5 -48 c0
-26 -20 -25 -23 2 -3 16 1 22 10 19 7 -3 13 -12 13 -21z"/>
<path d="M873 3213 c-21 -8 -14 -25 7 -18 11 4 20 2 20 -4 0 -6 -9 -11 -19
-11 -23 0 -34 -25 -18 -38 7 -6 24 -8 40 -5 21 4 27 11 27 32 0 41 -23 58 -57
44z m27 -53 c0 -5 -4 -10 -10 -10 -5 0 -10 5 -10 10 0 6 5 10 10 10 6 0 10 -4
10 -10z"/>
<path d="M944 3211 c-2 -2 -4 -20 -4 -38 0 -41 23 -41 28 0 4 37 22 34 22 -3
0 -36 17 -40 22 -5 2 14 8 26 13 26 6 0 11 -12 13 -26 2 -14 8 -25 13 -25 14
0 11 58 -3 67 -14 8 -96 12 -104 4z"/>
<path d="M1083 3209 c-14 -14 -6 -39 12 -39 8 0 17 -5 20 -10 4 -7 -2 -9 -19
-4 -14 3 -26 4 -26 0 0 -11 39 -26 54 -20 20 8 21 44 2 44 -8 0 -18 5 -22 11
-4 8 0 9 15 4 24 -7 29 10 5 19 -22 8 -28 8 -41 -5z"/>
<path d="M1160 3181 c0 -42 10 -50 47 -43 19 4 23 11 23 43 0 47 -17 52 -22 7
-2 -18 -7 -33 -13 -33 -5 0 -11 15 -13 33 -5 45 -22 40 -22 -7z"/>
<path d="M1520 3180 c0 -22 5 -40 10 -40 6 0 10 18 10 40 0 22 -4 40 -10 40
-5 0 -10 -18 -10 -40z"/>
<path d="M1560 3179 c0 -44 17 -54 22 -12 4 39 28 42 28 4 0 -17 5 -31 11 -31
6 0 9 16 7 38 -3 34 -6 37 -35 39 -32 1 -33 0 -33 -38z"/>
<path d="M422 3158 c-10 -14 -15 -39 -13 -73 1 -17 4 -15 20 12 28 45 81 57
81 17 0 -9 -11 -14 -35 -14 -19 0 -35 -5 -35 -11 0 -6 9 -9 20 -6 11 3 20 1
20 -5 0 -6 7 -8 15 -4 8 3 15 1 15 -4 0 -6 -11 -10 -25 -10 -27 0 -75 -19 -75
-30 0 -4 -13 -21 -30 -36 -16 -16 -26 -34 -22 -39 40 -56 145 -64 204 -15 l23
19 -42 38 c-40 36 -41 39 -28 63 21 38 18 76 -7 94 -27 19 -72 21 -86 4z m23
-158 c3 -5 1 -10 -4 -10 -6 0 -11 5 -11 10 0 6 2 10 4 10 3 0 8 -4 11 -10z"/>
<path d="M320 2460 c0 -27 5 -50 10 -50 6 0 10 10 10 23 l1 22 18 -22 c11 -13
21 -23 23 -23 2 0 4 19 5 43 1 45 -8 57 -44 57 -21 0 -23 -5 -23 -50z m48 18
c-6 -18 -28 -21 -28 -4 0 9 7 16 16 16 9 0 14 -5 12 -12z"/>
<path d="M1081 2493 c-5 -10 -12 -17 -15 -15 -14 6 -24 1 -30 -14 -9 -24 10
-49 38 -49 24 -1 26 2 26 47 0 52 -4 58 -19 31z m-1 -43 c0 -21 -15 -27 -25
-10 -7 12 2 30 16 30 5 0 9 -9 9 -20z"/>
<path d="M1250 2495 c0 -9 -6 -15 -12 -14 -33 4 -39 -2 -36 -33 3 -28 7 -33
31 -34 26 -1 27 1 27 47 0 27 -2 49 -5 49 -3 0 -5 -7 -5 -15z m-5 -45 c0 -7
-6 -15 -12 -17 -8 -3 -13 4 -13 17 0 13 5 20 13 18 6 -3 12 -11 12 -18z"/>
<path d="M417 2479 c-36 -20 -7 -80 30 -63 16 6 14 8 -7 12 l-25 5 24 6 c14 4
26 12 28 18 6 18 -29 33 -50 22z m30 -15 c-3 -3 -12 -4 -19 -1 -8 3 -5 6 6 6
11 1 17 -2 13 -5z"/>
<path d="M497 2478 c-34 -18 -8 -78 28 -64 22 8 18 25 -5 19 -15 -4 -20 0 -20
17 0 17 4 20 20 15 11 -3 20 -2 20 3 0 15 -24 21 -43 10z"/>
<path d="M572 2478 c-20 -20 -14 -56 10 -64 39 -12 59 45 24 68 -15 10 -20 10
-34 -4z m33 -28 c0 -7 -6 -15 -12 -17 -8 -3 -13 4 -13 17 0 13 5 20 13 18 6
-3 12 -11 12 -18z"/>
<path d="M657 2482 c-12 -3 -17 -14 -17 -38 0 -19 5 -34 10 -34 6 0 10 14 10
30 0 17 5 30 10 30 6 0 10 -13 10 -30 0 -16 5 -30 10 -30 6 0 10 14 10 30 0
17 5 30 10 30 6 0 10 -11 10 -24 0 -14 5 -28 11 -31 7 -5 9 6 7 31 -3 36 -5
39 -34 39 -17 0 -38 -1 -47 -3z"/>
<path d="M778 2482 c-13 -3 -18 -13 -18 -38 0 -21 4 -33 10 -29 6 3 10 17 10
31 0 13 5 24 10 24 6 0 10 -13 10 -30 0 -16 5 -30 10 -30 6 0 10 14 10 30 0
17 5 30 10 30 6 0 10 -13 10 -30 0 -16 5 -30 10 -30 11 0 14 70 3 71 -34 3
-61 4 -75 1z"/>
<path d="M893 2483 c-18 -7 -16 -62 2 -69 8 -4 23 -3 33 1 15 7 14 9 -8 15
-24 8 -24 8 -2 9 24 1 29 20 10 39 -13 13 -16 13 -35 5z"/>
<path d="M978 2482 c-14 -2 -18 -13 -17 -40 l1 -37 9 33 c12 40 29 42 29 2 0
-16 5 -30 10 -30 15 0 12 67 -2 72 -7 2 -21 3 -30 0z"/>
<path d="M1132 2478 c-19 -19 -14 -56 8 -63 11 -3 25 -3 32 1 9 6 5 10 -12 15
-24 7 -24 7 -2 8 26 1 31 35 6 45 -20 8 -18 8 -32 -6z"/>
<path d="M783 2314 c-7 -19 11 -39 26 -30 16 10 13 33 -4 40 -9 3 -18 -1 -22
-10z"/>
<path d="M393 2073 c-28 -5 -58 -46 -72 -98 -11 -42 -14 -402 -4 -419 11 -17
12 -57 2 -51 -5 4 -9 -31 -9 -84 l0 -91 718 0 c394 0 785 -1 867 -1 l150 0 3
203 3 204 -71 12 c-60 10 -75 10 -100 -3 -16 -8 -48 -15 -71 -15 -35 0 -48 6
-80 39 -22 21 -39 36 -39 33 0 -3 -5 -1 -12 6 -7 7 -30 12 -52 12 -22 0 -47 7
-57 16 -10 9 -35 20 -56 24 -89 18 -129 28 -145 35 -13 5 -18 2 -18 -10 0 -12
-7 -16 -27 -13 -23 2 -28 8 -26 28 2 25 2 25 -9 -2 -13 -30 -23 -35 -34 -17
-4 8 -9 7 -15 -2 -10 -17 -16 -11 -24 24 -5 17 -3 27 4 27 6 0 11 -6 11 -12 0
-9 4 -8 10 2 9 13 11 13 20 0 8 -13 10 -13 10 1 0 10 -14 22 -32 29 -18 7 -52
21 -75 32 -23 11 -47 17 -52 13 -6 -3 -29 -1 -53 5 -45 10 -229 32 -263 31
-11 0 -29 -1 -39 -1 -11 -1 -26 -10 -33 -20 -10 -14 -26 -20 -50 -20 -49 0
-194 40 -187 51 3 5 1 9 -5 9 -5 0 -13 -4 -16 -10 -3 -5 -14 -10 -23 -9 -13 0
-11 3 6 11 44 22 6 43 -55 31z m-3 -55 c0 -18 -2 -20 -9 -8 -6 8 -7 18 -5 22
9 14 14 9 14 -14z m70 -28 c0 -5 -4 -10 -10 -10 -5 0 -10 5 -10 10 0 6 5 10
10 10 6 0 10 -4 10 -10z m18 -77 c3 -28 -1 -33 -23 -39 -33 -8 -38 -3 -39 41
-1 34 1 36 29 33 26 -3 30 -8 33 -35z m92 -2 c0 -39 0 -39 -37 -38 -34 2 -38
5 -41 31 -3 27 -2 28 27 24 21 -3 31 0 31 9 0 7 5 13 10 13 6 0 10 -18 10 -39z
m220 28 c0 6 7 11 16 11 13 0 14 -3 4 -15 -7 -8 -9 -23 -5 -32 6 -16 8 -16 16
5 9 23 48 31 50 10 0 -10 2 -10 6 0 6 15 45 16 61 0 9 -9 12 -9 12 0 0 7 7 12
15 12 8 0 15 5 15 10 0 6 5 10 10 10 6 0 10 -18 10 -40 0 -32 -4 -40 -18 -40
-10 0 -23 5 -30 12 -9 9 -12 9 -12 0 0 -7 -4 -12 -10 -12 -5 0 -10 9 -10 20 0
11 -4 20 -10 20 -5 0 -10 -8 -10 -19 0 -15 -8 -18 -50 -18 -28 0 -53 4 -56 9
-4 6 -10 5 -14 -2 -12 -19 -30 -2 -30 29 0 34 9 44 27 30 9 -9 13 -8 13 0z
m347 -34 c-1 -40 -13 -46 -27 -12 l-9 22 0 -23 c-1 -18 -6 -23 -23 -20 -15 2
-22 9 -22 21 1 9 -4 17 -12 17 -8 0 -14 -9 -14 -20 0 -11 -4 -20 -10 -20 -5 0
-10 13 -10 29 0 28 2 29 46 29 26 0 51 5 57 11 16 16 25 4 24 -34z m-537 -5
c0 -16 -4 -30 -10 -30 -5 0 -10 14 -10 30 0 17 5 30 10 30 6 0 10 -13 10 -30z
m60 0 c0 -35 -19 -41 -21 -7 l-2 22 -4 -22 c-6 -33 -23 -28 -23 7 0 25 4 30
25 30 21 0 25 -5 25 -30z m60 -1 c0 -26 -3 -30 -22 -27 -36 5 -33 58 3 58 15
0 19 -7 19 -31z m478 4 c-3 -31 -34 -44 -44 -19 -9 24 3 46 26 46 17 0 21 -5
18 -27z m-724 -116 c16 -25 -16 -56 -38 -37 -19 15 -20 32 -4 48 15 15 28 11
42 -11z m77 -1 c-6 -7 -9 -21 -5 -30 4 -11 1 -16 -10 -16 -18 0 -20 8 -6 30 6
9 5 17 -3 22 -7 5 -3 8 12 8 19 0 21 -3 12 -14z m114 1 c51 5 55 4 55 -15 0
-25 -19 -39 -30 -22 -5 9 -9 9 -14 1 -11 -18 -26 -13 -36 12 -6 15 -9 17 -9 6
-1 -11 -12 -18 -31 -21 -30 -5 -56 12 -32 20 7 2 9 9 5 15 -4 6 0 8 10 4 10
-4 17 -1 18 6 0 8 2 9 5 1 3 -8 23 -10 59 -7z m269 6 c4 -4 15 -8 24 -8 9 0
17 -7 18 -15 0 -9 -1 -10 -3 -2 -3 6 -9 12 -15 12 -5 0 -8 -7 -4 -15 3 -8 1
-15 -4 -15 -6 0 -10 7 -10 16 0 9 -5 12 -12 8 -7 -4 -8 -3 -4 4 4 7 3 12 -3
12 -5 0 -12 -10 -14 -22 -4 -20 -4 -19 -6 5 -1 26 16 37 33 20z m79 -7 c7 2
13 -4 14 -17 2 -18 0 -19 -14 -7 -12 9 -15 10 -9 1 4 -7 2 -13 -3 -13 -6 0
-11 12 -10 28 0 15 3 22 5 15 3 -7 11 -10 17 -7z m47 -1 c5 3 8 -3 7 -13 -2
-29 -27 -22 -26 7 0 14 3 20 6 13 2 -6 9 -10 13 -7z m-302 -17 c-4 -25 -28
-37 -28 -14 0 9 5 16 11 16 5 0 7 5 4 10 -3 6 -1 10 5 10 6 0 10 -10 8 -22z
m90 1 c2 -10 -5 -15 -23 -15 -14 0 -25 6 -25 13 0 19 -18 16 -23 -4 -4 -14 -5
-13 -6 4 -1 19 4 22 36 19 24 -1 39 -7 41 -17z m265 7 c8 -20 -18 -42 -29 -25
-4 8 -2 15 5 17 11 4 11 6 0 13 -11 7 -11 9 2 9 9 0 19 -6 22 -14z m-423 -137
c0 -7 -6 -4 -15 7 -19 25 -19 40 0 20 8 -8 15 -20 15 -27z m1196 -132 c3 -3
-20 -11 -50 -18 -31 -7 -61 -18 -67 -26 -13 -15 -29 -17 -29 -3 0 6 7 10 15
10 23 0 18 21 -7 28 -18 5 -13 8 22 13 51 6 108 4 116 -4z m-1385 -22 c24 -9
51 -18 59 -22 8 -3 18 -7 22 -7 4 -1 13 -7 19 -13 9 -9 -7 -7 -47 4 -32 9 -62
21 -65 25 -3 5 -19 13 -35 18 -16 4 -22 9 -13 9 9 1 36 -6 60 -14z m49 -55
c10 0 22 -4 25 -10 3 -5 17 -10 31 -10 32 0 31 -15 -2 -18 -32 -2 -84 27 -83
48 0 10 2 11 6 3 2 -7 13 -13 23 -13z m110 -16 c0 -20 -7 -17 -20 6 -9 16 -8
18 5 14 8 -4 15 -12 15 -20z m35 -4 c3 -5 -1 -10 -10 -10 -9 0 -13 5 -10 10 3
6 8 10 10 10 2 0 7 -4 10 -10z m34 -50 c8 0 12 -3 9 -6 -9 -9 -89 16 -83 26 3
5 18 2 33 -6 15 -7 33 -14 41 -14z"/>
<path d="M440 1910 c0 -11 5 -20 10 -20 6 0 10 9 10 20 0 11 -4 20 -10 20 -5
0 -10 -9 -10 -20z"/>
<path d="M965 1911 c-3 -5 -1 -12 5 -16 5 -3 10 1 10 9 0 18 -6 21 -15 7z"/>
<path d="M650 1770 c0 -5 5 -10 10 -10 6 0 10 5 10 10 0 6 -4 10 -10 10 -5 0
-10 -4 -10 -10z"/>
<path d="M1766 1905 c-9 -26 -7 -93 4 -100 5 -3 19 -1 30 5 16 9 25 8 36 -1
23 -19 36 2 32 57 l-3 49 -46 3 c-36 2 -48 -1 -53 -13z m92 -48 c3 -46 2 -48
-17 -37 -11 6 -32 8 -46 4 -24 -6 -25 -4 -25 33 0 49 5 55 50 51 34 -3 35 -4
38 -51z"/>
<path d="M1808 1863 c7 -3 16 -2 19 1 4 3 -2 6 -13 5 -11 0 -14 -3 -6 -6z"/>
<path d="M1932 1796 c-11 -25 -10 -26 13 -21 14 3 37 7 53 10 l27 4 -29 -13
-29 -13 37 -5 c36 -4 37 -3 33 26 -3 27 -7 31 -38 33 -30 2 -31 1 -9 -7 24 -8
24 -8 -7 -9 -17 -1 -33 4 -35 10 -2 6 -9 -1 -16 -15z"/>
<path d="M585 1070 c-8 -14 3 -30 21 -30 8 0 14 9 14 20 0 21 -24 28 -35 10z"/>
<path d="M665 1070 c-8 -14 3 -30 21 -30 8 0 14 9 14 20 0 21 -24 28 -35 10z"/>
<path d="M585 981 c-8 -15 3 -31 21 -31 9 0 14 7 12 17 -4 20 -24 28 -33 14z"/>
<path d="M665 980 c-8 -14 3 -30 21 -30 8 0 14 9 14 20 0 21 -24 28 -35 10z"/>
<path d="M3475 6059 c-8 -11 6 -17 38 -15 15 0 27 6 27 11 0 12 -58 16 -65 4z"/>
<path d="M4318 5250 c-106 -5 -119 -7 -142 -29 -39 -36 -49 -89 -44 -237 4
-141 12 -166 65 -201 23 -16 52 -18 203 -18 260 0 265 5 265 250 0 162 -7 187
-58 219 -27 17 -135 23 -289 16z m42 -236 c0 -19 -4 -33 -9 -30 -10 7 -20 53
-13 61 14 13 22 2 22 -31z m55 1 c0 -23 -5 -30 -19 -30 -19 0 -30 28 -21 53 9
26 40 8 40 -23z m48 -11 c-4 -10 -8 -10 -17 -1 -9 8 -10 14 -2 23 13 14 27 -2
19 -22z"/>
<path d="M3900 5085 c0 -8 -5 -15 -11 -15 -10 0 -63 -48 -56 -51 1 0 17 -1 35
-2 23 -1 37 4 43 15 5 10 6 18 2 18 -4 0 -2 5 4 11 12 12 7 39 -8 39 -5 0 -9
-7 -9 -15z"/>
<path d="M3962 5093 c-9 -4 -10 -9 -2 -18 11 -13 3 -48 -9 -41 -4 3 -12 -9
-18 -25 -10 -26 -10 -30 3 -25 9 3 24 6 35 6 16 0 18 6 16 40 -2 22 0 40 5 40
13 0 9 17 -4 22 -7 3 -19 3 -26 1z"/>
<path d="M4011 5058 c-5 -13 -5 -25 -1 -28 4 -3 10 -12 13 -20 3 -8 6 4 6 28
1 47 -5 54 -18 20z"/>
<path d="M3370 5057 c0 -7 -5 -18 -12 -25 -9 -9 -16 -8 -30 5 -11 10 -18 12
-18 4 0 -6 7 -14 15 -17 8 -4 12 -11 8 -17 -3 -6 -1 -7 5 -3 7 4 12 2 12 -3 0
-6 6 -11 14 -11 9 0 15 14 18 40 2 22 0 40 -4 40 -5 0 -8 -6 -8 -13z"/>
<path d="M3515 5043 c-22 -25 -25 -36 -25 -101 0 -83 16 -131 53 -155 31 -20
234 -37 223 -18 -8 12 6 15 17 4 12 -11 160 -2 188 12 23 13 59 76 59 105 0 6
-14 10 -30 10 -18 0 -33 6 -36 15 -5 11 -11 12 -25 4 -14 -7 -25 -6 -41 6 -13
8 -35 15 -50 15 -14 0 -39 5 -55 11 -15 6 -37 13 -47 15 -11 2 -24 9 -30 15
-8 9 -5 10 11 6 15 -3 20 -1 16 9 -3 8 2 17 11 20 20 8 21 24 1 24 -8 0 -15
-5 -15 -10 0 -6 -10 -8 -24 -4 -14 3 -38 -1 -57 -12 l-33 -17 -32 37 c-17 20
-36 36 -42 36 -6 0 -23 -12 -37 -27z m180 -132 c3 -5 1 -12 -4 -16 -14 -8 -62
5 -55 16 7 12 51 12 59 0z m-32 -35 c3 -9 14 -12 25 -9 12 3 22 -2 26 -13 9
-23 1 -29 -15 -11 -10 10 -22 12 -44 6 -48 -14 -57 -12 -43 10 7 11 16 17 20
15 4 -3 8 0 8 5 0 16 17 13 23 -3z m-76 -28 c-3 -8 -6 -5 -6 6 -1 11 2 17 5
13 3 -3 4 -12 1 -19z m203 -23 c10 -12 9 -15 -7 -15 -10 0 -28 7 -39 15 -18
14 -18 14 7 15 15 0 32 -7 39 -15z"/>
<path d="M3298 5003 c7 -3 16 -2 19 1 4 3 -2 6 -13 5 -11 0 -14 -3 -6 -6z"/>
<path d="M4000 4970 c-21 -16 -22 -20 -7 -20 12 0 16 -5 11 -12 -4 -7 1 -6 11
3 9 9 15 24 13 32 -3 14 -6 14 -28 -3z"/>
<path d="M3371 4903 c0 -13 -6 -23 -13 -23 -9 0 -9 -3 0 -12 16 -16 24 -5 19
29 -3 21 -4 23 -6 6z"/>
<path d="M3161 4263 c0 -21 3 -32 6 -25 2 6 11 12 20 12 21 0 13 44 -9 48 -15
3 -18 -4 -17 -35z m25 0 c-10 -10 -19 5 -10 18 6 11 8 11 12 0 2 -7 1 -15 -2
-18z"/>
<path d="M3230 4271 c0 -6 4 -13 10 -16 6 -3 7 1 4 9 -7 18 -14 21 -14 7z"/>
<path d="M3140 4140 c0 -23 5 -30 19 -30 12 0 21 8 24 23 4 22 4 22 15 -3 l12
-25 -3 25 c-1 19 -8 25 -24 24 -13 0 -23 3 -23 8 0 4 -4 8 -10 8 -5 0 -10 -13
-10 -30z"/>
<path d="M3240 4133 c0 -21 3 -24 9 -14 5 8 7 20 4 28 -8 21 -13 15 -13 -14z"/>
<path d="M3180 3740 c0 -34 3 -40 22 -40 21 0 21 0 2 15 -13 10 -14 14 -5 15
10 0 11 3 2 13 -8 10 -7 17 1 25 9 9 8 12 -5 12 -13 0 -17 -9 -17 -40z"/>
<path d="M3242 3740 c0 -19 2 -27 5 -17 2 9 2 25 0 35 -3 9 -5 1 -5 -18z"/>
<path d="M3232 3548 c-14 -14 -16 -68 -3 -68 5 0 11 12 13 27 4 35 28 43 28 9
0 -14 5 -26 10 -26 6 0 10 10 10 23 0 24 -17 47 -35 47 -6 0 -16 -5 -23 -12z"/>
<path d="M3330 3529 c-24 -33 -19 -55 5 -23 13 17 14 17 15 2 0 -34 20 -18 20
17 0 43 -12 44 -40 4z"/>
<path d="M3413 3552 c-17 -11 -21 -54 -5 -59 7 -3 10 1 7 9 -7 18 10 42 24 34
6 -4 11 -16 11 -27 0 -10 5 -19 10 -19 14 0 13 43 -2 58 -14 14 -28 15 -45 4z"/>
<path d="M3521 3528 c-1 -31 3 -38 18 -38 10 0 21 9 24 20 6 22 -7 27 -20 8
-5 -9 -10 -3 -14 17 -6 29 -7 29 -8 -7z"/>
<path d="M3990 3525 c0 -34 1 -35 28 -29 37 9 40 14 14 21 -27 7 -29 23 -2 23
11 0 20 5 20 10 0 6 -13 10 -30 10 -28 0 -30 -3 -30 -35z"/>
<path d="M4320 3550 c0 -5 5 -10 10 -10 6 0 10 -11 10 -25 0 -14 5 -25 10 -25
6 0 10 11 10 25 0 16 6 25 15 25 8 0 15 5 15 10 0 6 -16 10 -35 10 -19 0 -35
-4 -35 -10z"/>
<path d="M4600 3525 c0 -27 4 -35 18 -35 9 0 23 9 30 20 13 22 3 27 -16 8 -9
-9 -12 -6 -12 15 0 15 -4 27 -10 27 -5 0 -10 -16 -10 -35z"/>
<path d="M3590 3510 c0 -11 5 -20 10 -20 6 0 10 7 10 15 0 8 5 15 10 15 6 0
10 -7 10 -15 0 -20 10 -19 26 3 13 16 13 16 14 0 0 -25 20 -23 20 2 0 17 -7
20 -50 20 -43 0 -50 -3 -50 -20z"/>
<path d="M4070 3520 c0 -5 7 -7 15 -4 8 4 15 1 15 -4 0 -6 -8 -13 -17 -15 -11
-3 -7 -5 10 -6 21 -1 27 4 27 19 0 15 -7 20 -25 20 -14 0 -25 -4 -25 -10z"/>
<path d="M4145 3520 c-10 -17 5 -30 33 -29 26 0 26 1 5 9 -29 12 -30 24 -2 15
15 -5 19 -4 15 4 -9 14 -43 14 -51 1z"/>
<path d="M4210 3523 c0 -14 19 -38 25 -32 8 8 -5 39 -16 39 -5 0 -9 -3 -9 -7z"/>
<path d="M4257 3523 c-10 -9 -8 -33 2 -33 5 0 11 9 14 20 5 20 -3 26 -16 13z"/>
<path d="M4400 3510 c0 -11 3 -20 8 -20 4 0 13 9 20 20 11 18 10 20 -8 20 -13
0 -20 -7 -20 -20z"/>
<path d="M4455 3520 c-5 -9 -1 -10 14 -5 28 9 27 -3 -1 -15 -21 -8 -20 -9 10
-9 27 -1 33 3 30 17 -4 20 -43 29 -53 12z"/>
<path d="M4523 3515 c-8 -23 7 -33 18 -13 5 10 16 15 24 12 8 -4 15 -1 15 5 0
17 -50 13 -57 -4z"/>
<path d="M2840 1770 c0 -5 4 -10 9 -10 6 0 13 5 16 10 3 6 -1 10 -9 10 -9 0
-16 -4 -16 -10z"/>
</g>
</svg>
