<?xml version="1.0" standalone="no"?>
<!DOCTYPE svg PUBLIC "-//W3C//DTD SVG 20010904//EN"
 "http://www.w3.org/TR/2001/REC-SVG-20010904/DTD/svg10.dtd">
<svg version="1.0" xmlns="http://www.w3.org/2000/svg"
 width="428.000000pt" height="815.000000pt" viewBox="0 0 428.000000 815.000000"
 preserveAspectRatio="xMidYMid meet">

<g transform="translate(0.000000,815.000000) scale(0.100000,-0.100000)"
fill="#000000" stroke="none">
<path d="M516 8105 c-195 -40 -357 -179 -415 -358 -34 -105 -41 -195 -41 -506
0 -261 -2 -301 -15 -301 -13 0 -15 -22 -15 -140 0 -118 2 -140 15 -140 13 0
15 -20 15 -124 0 -73 -4 -127 -10 -131 -14 -8 -14 -552 0 -560 13 -8 13 -142
0 -150 -14 -8 -14 -565 0 -565 6 0 11 -692 12 -1982 l3 -1983 22 -78 c31 -109
67 -171 144 -250 48 -48 87 -77 141 -102 144 -68 78 -66 1511 -63 l1292 3 70
23 c154 52 260 142 325 277 75 153 70 -1 70 2289 0 1816 2 2055 15 2060 13 5
15 64 15 446 0 382 -2 441 -15 446 -13 5 -15 91 -15 685 0 753 -1 768 -64 904
-38 81 -118 174 -193 221 -28 19 -87 46 -130 61 l-78 28 -1295 2 c-1069 1
-1307 -1 -1364 -12z m442 -174 c8 -4 17 -37 22 -73 4 -36 13 -74 18 -85 17
-30 79 -82 110 -90 35 -10 1448 -10 1484 -1 66 19 127 105 128 181 0 77 -1 77
194 77 95 0 199 -5 232 -11 159 -29 270 -138 303 -297 8 -38 11 -815 11 -2745
l0 -2693 -45 -22 c-25 -12 -52 -22 -61 -22 -8 0 -12 -4 -9 -10 3 -5 0 -7 -8
-4 -14 5 -33 -24 -22 -34 3 -3 5 0 5 6 0 7 7 12 15 12 10 0 15 -9 14 -27 l-1
-28 -7 25 -7 25 -8 -25 c-4 -15 -9 -20 -13 -12 -4 10 -8 10 -19 1 -11 -9 -14
-8 -14 5 0 9 -4 16 -10 16 -5 0 -10 -7 -10 -16 0 -13 -7 -15 -40 -9 -22 4 -40
3 -40 -2 0 -5 -15 -7 -32 -5 -18 2 -53 -2 -78 -8 -25 -6 -53 -12 -63 -15 -10
-2 -37 -18 -60 -35 -22 -16 -47 -30 -55 -30 -14 0 -44 -25 -147 -119 -22 -20
-55 -43 -73 -50 -28 -12 -35 -12 -51 3 -9 9 -21 16 -24 16 -4 0 -7 -58 -7
-130 l0 -130 435 0 435 0 0 -188 c0 -208 -10 -270 -59 -357 -38 -68 -115 -129
-198 -157 l-68 -23 -1245 -3 c-834 -2 -1268 1 -1315 8 -144 21 -261 109 -305
227 -12 32 -26 93 -31 137 -6 51 -8 1243 -7 3236 3 2842 5 3160 19 3205 26 80
54 127 106 177 97 90 159 106 408 107 99 0 186 -3 193 -8z m2471 -5817 c2 -2
-1 -10 -8 -18 -9 -11 -9 -15 1 -19 7 -3 -2 -6 -19 -6 -22 -1 -33 4 -33 13 0 8
-3 21 -6 30 -5 13 0 15 27 10 19 -4 36 -8 38 -10z m29 -19 c-1 -14 -6 -25 -10
-25 -4 0 -8 11 -8 25 0 14 4 25 10 25 5 0 9 -11 8 -25z"/>
<path d="M520 7766 c0 -18 6 -26 23 -29 22 -4 22 -4 -3 -15 l-25 -12 25 3 c21
2 25 7 25 37 0 29 -4 36 -22 38 -19 3 -23 -1 -23 -22z m40 -1 c0 -8 -7 -15
-15 -15 -8 0 -15 7 -15 15 0 8 7 15 15 15 8 0 15 -7 15 -15z"/>
<path d="M633 7783 c19 -5 24 -23 5 -23 -6 0 -3 -6 8 -14 18 -14 18 -15 -6
-25 l-25 -10 27 0 c25 -1 27 2 26 39 0 37 -3 40 -27 39 -17 -1 -20 -3 -8 -6z"/>
<path d="M694 7776 c-3 -8 -4 -25 -2 -38 2 -17 9 -23 28 -23 22 0 25 4 25 35
0 29 -4 36 -23 38 -13 2 -24 -3 -28 -12z m36 -26 c0 -16 -5 -30 -10 -30 -14 0
-24 26 -16 45 10 26 26 16 26 -15z"/>
<path d="M3003 7780 c-13 -5 -23 -14 -23 -19 0 -7 9 -6 25 1 19 8 31 8 51 -1
28 -12 44 -7 28 8 -15 15 -57 21 -81 11z"/>
<path d="M3152 7748 l3 -33 83 -3 82 -3 0 36 0 35 -86 0 -85 0 3 -32z"/>
<path d="M2850 7736 c0 -26 4 -36 16 -36 11 0 14 8 12 32 -4 46 -28 49 -28 4z"/>
<path d="M3013 7753 c-24 -9 -13 -19 22 -19 37 0 46 10 19 20 -18 7 -23 7 -41
-1z"/>
<path d="M2810 7725 c0 -16 6 -25 15 -25 9 0 15 9 15 25 0 16 -6 25 -15 25 -9
0 -15 -9 -15 -25z"/>
<path d="M2777 7733 c-13 -12 -7 -33 8 -33 8 0 15 9 15 20 0 20 -11 26 -23 13z"/>
<path d="M3026 7721 c-4 -5 -2 -12 3 -15 5 -4 12 -2 15 3 4 5 2 12 -3 15 -5 4
-12 2 -15 -3z"/>
<path d="M3117 7152 c-9 -10 -17 -26 -17 -35 0 -9 -5 -28 -12 -42 -10 -22 -9
-28 3 -36 19 -12 106 -11 114 1 7 12 -15 80 -26 80 -4 0 -9 10 -11 22 -4 29
-29 34 -51 10z"/>
<path d="M3138 7003 c7 -3 16 -2 19 1 4 3 -2 6 -13 5 -11 0 -14 -3 -6 -6z"/>
<path d="M433 6550 c-29 -12 -43 -40 -43 -89 0 -54 27 -81 78 -81 45 0 72 24
72 63 0 24 -4 27 -35 27 -38 0 -48 -19 -15 -27 16 -4 18 -8 9 -19 -20 -24 -58
-17 -69 12 -14 37 -12 52 9 73 19 19 61 19 61 0 0 -5 9 -9 20 -9 32 0 22 28
-17 49 -25 13 -40 13 -70 1z"/>
<path d="M870 6470 c0 -73 3 -90 15 -90 12 0 15 17 15 90 0 73 -3 90 -15 90
-12 0 -15 -17 -15 -90z"/>
<path d="M1373 6548 c2 -7 10 -13 17 -13 7 0 15 6 18 13 2 7 -5 12 -18 12 -13
0 -20 -5 -17 -12z"/>
<path d="M1767 6554 c-4 -4 -7 -17 -7 -29 0 -18 -5 -21 -29 -17 -50 7 -79 -58
-46 -105 12 -18 25 -22 66 -21 l50 0 -3 86 c-3 78 -12 104 -31 86z m-7 -108
c0 -36 -19 -53 -39 -33 -12 12 -15 50 -4 60 3 4 15 7 25 7 14 0 18 -8 18 -34z"/>
<path d="M717 6518 c-7 -24 9 -118 22 -131 5 -5 19 -7 32 -5 21 3 22 4 6 20
-21 21 -22 74 -2 82 8 3 15 10 15 16 0 5 -7 10 -15 10 -8 0 -15 7 -15 15 0 23
-37 18 -43 -7z"/>
<path d="M587 6492 c-21 -23 -22 -76 -1 -96 20 -20 78 -21 94 -1 18 22 4 31
-25 15 -20 -10 -27 -11 -40 0 -22 18 -9 30 36 30 31 0 39 4 39 18 0 46 -72 69
-103 34z m63 -17 c11 -13 8 -15 -21 -15 -32 1 -33 1 -15 15 24 18 21 18 36 0z"/>
<path d="M930 6444 c0 -57 2 -64 19 -64 17 0 20 8 23 48 3 39 6 47 23 47 17 0
20 -8 23 -47 2 -35 7 -48 18 -48 12 0 14 12 12 63 l-3 62 -57 2 -58 2 0 -65z"/>
<path d="M1090 6495 c-18 -22 -2 -55 31 -62 16 -3 32 -9 34 -14 10 -15 -17
-21 -41 -8 -28 15 -42 6 -24 -16 20 -24 87 -20 101 7 10 18 8 24 -11 40 -12
10 -31 18 -41 18 -10 0 -19 4 -19 9 0 18 19 22 39 9 25 -15 39 -4 21 17 -16
19 -74 20 -90 0z"/>
<path d="M1220 6419 c0 -82 1 -89 20 -89 15 0 20 7 20 28 0 26 3 28 29 24 50
-7 79 58 46 105 -12 18 -25 22 -65 21 l-50 0 0 -89z m88 33 c2 -13 -2 -29 -8
-37 -19 -23 -40 -6 -40 32 0 30 3 34 23 31 14 -2 23 -11 25 -26z"/>
<path d="M1370 6445 c0 -58 2 -65 20 -65 18 0 20 7 20 65 0 58 -2 65 -20 65
-18 0 -20 -7 -20 -65z"/>
<path d="M1440 6444 c0 -49 3 -64 14 -64 10 0 16 14 18 43 2 32 8 44 26 52 35
16 26 32 -18 32 l-40 0 0 -63z"/>
<path d="M1547 6492 c-19 -21 -22 -64 -7 -93 13 -24 81 -27 100 -4 18 22 4 31
-25 15 -20 -10 -27 -11 -40 0 -22 18 -9 30 36 30 31 0 39 4 39 18 0 46 -72 69
-103 34z m63 -17 c11 -13 8 -15 -21 -15 -32 1 -33 1 -15 15 24 18 21 18 36 0z"/>
<path d="M575 6093 c-89 -20 -134 -52 -167 -116 -16 -32 -22 -70 -28 -162 -9
-147 -13 -936 -4 -969 4 -19 15 -26 46 -31 26 -5 36 -10 28 -15 -7 -4 -25 -6
-40 -4 -25 4 -27 2 -30 -38 -7 -97 0 -407 11 -459 25 -121 80 -170 214 -189
99 -13 1001 -13 1100 1 139 19 199 66 221 174 5 22 9 396 9 830 0 612 -3 799
-13 832 -17 56 -57 102 -112 127 -44 21 -59 21 -630 23 -322 0 -594 -1 -605
-4z m110 -993 c3 -5 1 -10 -4 -10 -6 0 -11 5 -11 10 0 6 2 10 4 10 3 0 8 -4
11 -10z m372 -262 c-3 -8 -6 -5 -6 6 -1 11 2 17 5 13 3 -3 4 -12 1 -19z m-459
-190 c19 -19 14 -28 -17 -28 -29 0 -57 21 -44 33 11 11 48 8 61 -5z m62 -14
c0 -2 -9 -4 -21 -4 -11 0 -18 4 -14 10 5 8 35 3 35 -6z m597 -40 c-3 -3 -12
-4 -19 -1 -8 3 -5 6 6 6 11 1 17 -2 13 -5z m-727 -60 c0 -19 5 -24 24 -24 13
0 38 -3 55 -6 27 -6 31 -4 31 15 0 12 6 21 16 21 11 0 14 -6 9 -20 -5 -15 -2
-20 13 -20 15 0 19 -5 15 -19 -2 -10 -12 -18 -21 -17 -9 0 -17 -6 -17 -14 0
-17 -6 -20 -35 -20 -14 0 -19 6 -17 22 1 14 -4 23 -13 23 -8 1 -27 6 -42 13
-22 9 -28 18 -28 41 0 21 -6 32 -20 36 -11 3 -20 11 -20 16 0 5 11 2 25 -7 15
-10 25 -26 25 -40z m96 41 c16 -12 16 -14 3 -15 -9 0 -22 7 -29 15 -16 19 0
19 26 0z m99 -5 c18 -8 18 -9 -5 -9 -18 -1 -21 -4 -11 -10 8 -5 9 -11 3 -15
-13 -8 -36 20 -27 34 7 12 13 12 40 0z m-238 -24 c-3 -8 3 -24 14 -37 35 -41
22 -54 -15 -14 -23 25 -25 65 -4 65 6 0 8 -6 5 -14z m317 -12 c20 -3 39 -11
43 -17 3 -6 1 -7 -6 -3 -6 4 -23 0 -36 -8 -21 -14 -25 -14 -25 -2 0 8 -10 22
-22 32 -14 10 -16 14 -6 11 9 -3 33 -9 52 -13z m-64 -52 c0 -15 -2 -15 -10 -2
-13 20 -13 33 0 25 6 -3 10 -14 10 -23z m255 -12 c3 -6 -4 -10 -17 -10 -18 0
-20 2 -8 10 19 12 18 12 25 0z m-145 -56 c0 -8 -5 -12 -10 -9 -6 4 -8 11 -5
16 9 14 15 11 15 -7z m295 -20 c17 -9 21 -33 5 -27 -27 9 -35 5 -38 -16 -3
-21 -1 -23 22 -19 17 3 26 1 26 -7 0 -32 -61 -23 -74 11 -7 18 24 90 33 77 3
-4 15 -13 26 -19z m70 16 c3 -5 1 -10 -4 -10 -6 0 -11 5 -11 10 0 6 2 10 4 10
3 0 8 -4 11 -10z m-469 -45 c21 -51 19 -68 -6 -53 -16 10 -24 10 -41 0 -20
-13 -21 -12 -15 12 21 83 39 96 62 41z m524 -9 c0 -25 -4 -48 -10 -51 -6 -4
-10 11 -10 39 0 26 -5 46 -12 49 -7 3 -3 6 10 6 20 1 22 -4 22 -43z m30 34 c0
-5 -4 -10 -10 -10 -5 0 -10 5 -10 10 0 6 5 10 10 10 6 0 10 -4 10 -10z m122
-6 c24 -12 32 -13 38 -3 5 6 15 9 24 6 12 -5 15 -14 11 -34 l-6 -28 16 28 c24
41 65 30 65 -19 0 -26 -34 -41 -55 -24 -9 8 -15 8 -20 0 -5 -8 -11 -8 -20 0
-7 6 -20 8 -29 4 -12 -4 -16 0 -16 15 0 12 -4 21 -10 21 -5 0 -10 -9 -10 -21
0 -13 -6 -20 -17 -18 -10 1 -26 -1 -36 -6 -38 -16 -63 38 -31 70 15 14 18 15
34 0 15 -13 19 -14 29 -1 9 11 9 15 -1 19 -7 3 -9 6 -5 6 4 1 22 -6 39 -15z
m-592 -38 c0 -17 2 -18 9 -6 6 8 7 18 5 22 -3 4 2 8 10 8 9 0 16 -9 16 -20 0
-11 5 -20 10 -20 6 0 10 9 10 20 0 11 5 20 10 20 6 0 10 -5 10 -11 0 -6 7 -3
16 6 25 25 49 15 52 -23 2 -17 -1 -32 -7 -32 -5 0 -16 -3 -25 -6 -11 -4 -19 2
-25 17 -7 18 -10 19 -10 7 -1 -17 -23 -24 -59 -19 -8 1 -19 -5 -26 -14 -15
-21 -48 -16 -51 6 -2 9 -6 26 -9 37 -5 14 -1 24 10 30 25 14 54 3 54 -22z
m208 16 c2 -8 -3 -10 -15 -7 -11 4 -9 1 5 -6 25 -14 29 -34 7 -43 -25 -9 -42
4 -43 32 0 38 35 56 46 24z m198 -7 c8 -33 0 -52 -23 -50 -30 2 -45 15 -34 29
6 7 8 16 4 20 -8 8 15 26 34 26 7 0 15 -11 19 -25z m400 10 c19 -10 23 -15 12
-15 -10 0 -15 -5 -12 -13 6 -17 -21 -41 -40 -34 -16 6 -18 59 -2 69 14 10 9
10 42 -7z m-336 -25 c0 -16 -4 -30 -10 -30 -5 0 -10 14 -10 30 0 17 5 30 10
30 6 0 10 -13 10 -30z m560 -25 c24 -14 24 -14 3 -15 -28 0 -53 10 -53 21 0
13 21 10 50 -6z m-329 -62 c13 -16 12 -17 -3 -4 -10 7 -18 15 -18 17 0 8 8 3
21 -13z"/>
<path d="M1451 4344 c0 -11 3 -14 6 -6 3 7 2 16 -1 19 -3 4 -6 -2 -5 -13z"/>
<path d="M790 4340 c0 -5 5 -10 10 -10 6 0 10 5 10 10 0 6 -4 10 -10 10 -5 0
-10 -4 -10 -10z"/>
<path d="M2305 6060 c-3 -5 -1 -10 4 -10 6 0 11 5 11 10 0 6 -2 10 -4 10 -3 0
-8 -4 -11 -10z"/>
<path d="M2363 6047 c-4 -7 -19 -21 -32 -30 -23 -15 -25 -15 -38 1 -12 16 -14
15 -32 -8 -14 -18 -22 -21 -33 -13 -21 17 -67 21 -78 8 -33 -40 -42 -112 -47
-372 -7 -360 5 -439 76 -511 59 -59 106 -64 566 -60 393 3 412 4 455 24 53 25
83 55 107 109 15 35 18 79 21 345 4 322 -2 392 -40 455 -22 38 -35 44 -44 20
-8 -20 -67 -55 -92 -55 -12 0 -26 -9 -32 -20 -7 -12 -16 -17 -27 -13 -12 5
-14 3 -8 -7 6 -10 4 -12 -9 -7 -10 4 -20 7 -22 7 -3 0 -2 5 1 10 9 15 -17 12
-38 -4 -13 -10 -15 -15 -5 -19 7 -3 -9 -11 -35 -18 -34 -9 -53 -22 -65 -41 -8
-15 -26 -29 -39 -33 -13 -3 -23 -10 -23 -15 0 -6 -7 -10 -15 -10 -8 0 -15 7
-15 15 0 9 -6 12 -17 9 -15 -5 -15 -4 -3 5 16 11 10 21 -17 26 -10 2 -20 4
-23 5 -3 1 5 5 18 10 26 11 29 30 5 31 -11 0 -13 3 -5 6 14 5 17 33 3 33 -5 0
-7 8 -4 18 7 27 -21 47 -38 26 -11 -13 -10 -17 2 -25 11 -8 10 -9 -6 -7 -11 1
-25 -1 -32 -5 -6 -4 -14 -3 -18 3 -3 5 -11 10 -17 10 -7 0 -6 -5 2 -14 10 -13
8 -13 -14 -3 -14 7 -28 19 -31 28 -8 24 -113 34 -137 12 -15 -13 -20 -14 -34
-3 -14 12 -13 15 10 27 14 8 26 16 26 19 0 3 -4 3 -9 0 -9 -6 -26 22 -22 37 1
8 -19 4 -56 -10 -7 -3 -13 0 -13 6 0 15 -17 14 -27 -2z m67 -38 c0 -6 -4 -7
-10 -4 -5 3 -10 11 -10 16 0 6 5 7 10 4 6 -3 10 -11 10 -16z"/>
<path d="M2268 6043 c7 -3 16 -2 19 1 4 3 -2 6 -13 5 -11 0 -14 -3 -6 -6z"/>
<path d="M2630 5975 c0 -8 7 -15 16 -15 8 0 13 4 10 9 -4 5 0 12 6 14 7 3 3 6
-9 6 -14 1 -23 -5 -23 -14z"/>
<path d="M2791 5964 c6 -8 8 -14 3 -14 -5 0 -2 -4 5 -9 17 -11 51 3 51 20 0 6
-4 7 -10 4 -5 -3 -10 -3 -10 2 0 4 -11 9 -25 9 -21 2 -24 -1 -14 -12z"/>
<path d="M2870 5915 c-8 -9 -8 -15 -2 -15 12 0 26 19 19 26 -2 2 -10 -2 -17
-11z"/>
<path d="M2811 5861 c-9 -6 -7 -10 8 -14 12 -3 21 -1 21 3 0 14 -15 19 -29 11z"/>
<path d="M2307 4890 c-71 -11 -119 -40 -157 -92 -43 -59 -53 -126 -48 -332 4
-205 15 -245 80 -302 66 -58 74 -59 533 -59 464 0 468 0 537 63 70 63 72 73
76 306 4 240 -2 275 -59 340 -70 79 -71 80 -514 82 -214 1 -416 -2 -448 -6z
m347 -346 c21 -8 20 -33 -1 -56 -15 -17 -15 -18 0 -18 10 0 17 -4 17 -10 0 -5
-13 -10 -30 -10 -35 0 -39 18 -10 45 11 10 20 22 20 27 0 5 -9 6 -20 3 -21 -7
-28 10 -7 18 6 3 13 6 14 6 1 1 8 -2 17 -5z m83 -6 c5 -7 10 -27 11 -45 3 -39
-30 -55 -57 -28 -15 16 -14 17 12 11 27 -6 39 8 15 17 -10 4 -9 8 2 16 16 11
8 15 -25 11 -16 -2 -17 0 -6 14 16 19 35 21 48 4z m79 -23 c14 -13 14 -17 0
-31 -15 -14 -17 -14 -32 0 -12 13 -13 18 -2 30 16 19 16 19 34 1z"/>
<path d="M1816 3851 c-4 -7 -5 -15 -2 -18 9 -9 19 4 14 18 -4 11 -6 11 -12 0z"/>
<path d="M922 3838 c-23 -23 -13 -46 23 -58 19 -6 35 -15 35 -20 0 -16 -20
-21 -41 -10 -26 14 -36 6 -19 -15 16 -20 54 -19 75 1 21 22 15 36 -23 54 -17
8 -32 21 -32 28 0 15 22 16 38 0 15 -15 26 -4 19 17 -8 18 -58 20 -75 3z"/>
<path d="M1484 3836 c-9 -25 1 -109 14 -114 9 -3 12 14 12 62 0 61 -13 87 -26
52z"/>
<path d="M1570 3802 c0 -73 53 -109 93 -64 22 25 24 112 2 112 -11 0 -15 -12
-15 -49 0 -31 -5 -51 -12 -54 -28 -9 -38 6 -38 54 0 37 -4 49 -15 49 -11 0
-15 -12 -15 -48z"/>
<path d="M1760 3831 c0 -13 -5 -18 -17 -15 -28 7 -46 -12 -46 -46 0 -37 13
-48 59 -48 l34 0 0 64 c0 50 -3 64 -15 64 -8 0 -15 -9 -15 -19z m-5 -61 c0
-27 -22 -39 -31 -16 -8 22 3 49 19 43 6 -2 12 -14 12 -27z"/>
<path d="M1029 3803 c-13 -15 -11 -16 13 -10 15 4 29 3 32 -2 3 -5 -8 -11 -25
-15 -25 -5 -30 -10 -27 -28 2 -19 10 -23 41 -25 l37 -1 0 43 c0 30 -5 45 -16
49 -26 10 -41 7 -55 -11z m46 -53 c-3 -5 -10 -10 -16 -10 -5 0 -9 5 -9 10 0 6
7 10 16 10 8 0 12 -4 9 -10z"/>
<path d="M1120 3769 c0 -36 4 -49 14 -49 10 0 16 13 18 38 2 20 8 37 13 37 6
0 11 -17 13 -37 4 -50 20 -48 28 2 8 50 22 52 26 3 2 -20 9 -38 16 -41 10 -3
12 8 10 44 l-3 49 -67 1 -68 2 0 -49z"/>
<path d="M1293 3813 c-23 -9 -15 -42 12 -49 14 -3 25 -10 25 -15 0 -5 -11 -7
-25 -3 -16 4 -25 2 -25 -5 0 -16 26 -24 55 -17 34 9 34 43 0 52 -14 3 -25 10
-25 15 0 5 12 6 28 3 24 -7 26 -6 13 9 -13 17 -34 20 -58 10z"/>
<path d="M1382 3773 c3 -48 3 -48 41 -50 l37 -1 0 49 c0 27 -4 49 -10 49 -5 0
-10 -15 -10 -34 0 -38 -17 -57 -31 -35 -5 8 -9 26 -9 42 0 15 -5 27 -11 27 -6
0 -9 -19 -7 -47z"/>
<path d="M1810 3770 c0 -27 5 -50 10 -50 6 0 10 23 10 50 0 28 -4 50 -10 50
-5 0 -10 -22 -10 -50z"/>
<path d="M1860 3769 c0 -27 5 -49 10 -49 6 0 10 15 10 34 0 38 17 57 31 35 5
-8 9 -26 9 -41 0 -16 5 -28 11 -28 6 0 9 19 7 48 -3 47 -3 47 -40 49 l-38 1 0
-49z"/>
<path d="M517 3748 c-32 -29 -41 -69 -22 -94 14 -18 14 -18 15 7 0 31 36 59
75 59 18 0 25 -5 25 -20 0 -17 -7 -20 -45 -20 -25 0 -45 -4 -45 -9 0 -16 21
-24 32 -13 7 7 18 5 36 -4 34 -18 42 -11 42 40 0 39 -3 44 -35 59 -46 22 -49
21 -78 -5z"/>
<path d="M530 3615 c-7 -8 -16 -12 -21 -9 -5 3 -17 -8 -27 -25 -9 -17 -22 -31
-28 -31 -6 0 -17 -7 -24 -15 -11 -13 -9 -20 10 -40 51 -55 161 -59 226 -10
l37 28 -24 20 c-62 49 -78 67 -73 82 8 21 -59 21 -76 0z m0 -58 c0 -5 -4 -5
-10 -2 -5 3 -10 14 -10 23 0 15 2 15 10 2 5 -8 10 -19 10 -23z"/>
<path d="M387 2973 c-4 -3 -7 -28 -7 -54 0 -50 17 -76 27 -40 7 26 11 26 33
-1 10 -13 22 -20 26 -16 4 4 1 14 -5 22 -9 11 -10 20 -2 35 14 25 14 27 -5 45
-16 16 -55 22 -67 9z m51 -30 c-5 -25 -28 -28 -28 -4 0 12 6 21 16 21 9 0 14
-7 12 -17z"/>
<path d="M1290 2961 c0 -14 -5 -18 -19 -14 -27 7 -47 -31 -32 -63 8 -18 17
-23 41 -21 30 2 30 3 30 60 0 31 -4 57 -10 57 -5 0 -10 -9 -10 -19z m-2 -53
c-5 -32 -28 -35 -28 -4 0 17 5 26 16 26 10 0 14 -7 12 -22z"/>
<path d="M1480 2962 c0 -15 -5 -19 -20 -15 -33 9 -49 -68 -17 -80 7 -2 23 -3
37 -2 23 2 25 5 25 55 0 34 -5 55 -12 58 -8 2 -13 -5 -13 -16z m0 -58 c0 -31
-23 -28 -28 4 -2 15 2 22 12 22 11 0 16 -9 16 -26z"/>
<path d="M492 2938 c-7 -7 -12 -21 -12 -33 0 -41 45 -60 71 -29 11 13 9 14
-13 9 -15 -4 -29 -2 -32 4 -5 7 4 11 23 11 19 0 31 5 31 13 0 18 -21 37 -40
37 -9 0 -21 -5 -28 -12z m45 -14 c-3 -3 -12 -4 -19 -1 -8 3 -5 6 6 6 11 1 17
-2 13 -5z"/>
<path d="M580 2930 c-24 -45 25 -90 59 -55 15 15 14 16 -11 10 -25 -7 -28 -5
-28 20 0 24 3 26 25 21 27 -7 35 8 9 18 -28 11 -43 7 -54 -14z"/>
<path d="M671 2928 c-9 -23 0 -51 19 -63 16 -10 49 5 55 25 16 50 -56 86 -74
38z m49 -23 c0 -16 -6 -25 -15 -25 -9 0 -15 9 -15 25 0 16 6 25 15 25 9 0 15
-9 15 -25z"/>
<path d="M762 2906 c4 -49 22 -55 26 -8 2 17 7 32 12 32 5 0 10 -15 12 -32 2
-18 8 -33 13 -33 6 0 11 15 13 33 2 17 7 32 12 32 5 0 10 -15 12 -32 2 -18 7
-33 13 -33 13 0 18 30 11 60 -5 21 -11 23 -66 22 l-61 -1 3 -40z"/>
<path d="M903 2934 c-7 -19 1 -64 12 -67 6 -1 11 13 13 31 4 42 26 37 30 -6 4
-40 22 -32 22 9 0 40 18 37 22 -3 2 -18 7 -33 13 -33 13 0 18 30 11 60 -5 21
-11 23 -62 23 -34 -1 -58 -6 -61 -14z"/>
<path d="M1050 2930 c-21 -40 12 -80 54 -64 26 10 19 25 -9 18 -15 -4 -25 -2
-25 5 0 6 11 11 25 11 18 0 25 5 25 19 0 34 -53 42 -70 11z m47 -6 c-3 -3 -12
-4 -19 -1 -8 3 -5 6 6 6 11 1 17 -2 13 -5z"/>
<path d="M1140 2903 c0 -50 17 -59 22 -11 4 43 26 48 30 6 4 -39 22 -40 26 -3
5 35 -13 54 -49 53 -27 -1 -29 -3 -29 -45z"/>
<path d="M1340 2935 c-32 -38 24 -96 59 -60 15 15 14 16 -11 10 -18 -5 -28 -3
-28 4 0 6 11 11 25 11 27 0 33 18 13 38 -16 16 -43 15 -58 -3z m47 -11 c-3 -3
-12 -4 -19 -1 -8 3 -5 6 6 6 11 1 17 -2 13 -5z"/>
<path d="M934 2745 c-7 -18 3 -35 21 -35 15 0 24 19 18 38 -6 17 -32 15 -39
-3z"/>
<path d="M480 2462 c-35 -5 -60 -30 -81 -78 -17 -37 -19 -72 -21 -289 -1 -203
1 -248 13 -256 10 -6 10 -9 2 -9 -7 0 -13 -7 -13 -15 0 -8 5 -15 10 -15 6 0
10 -5 10 -11 0 -5 -4 -7 -10 -4 -6 4 -10 -9 -11 -32 -4 -135 -4 -159 -1 -170
2 -8 75 -11 263 -11 251 0 259 0 259 19 0 11 4 18 10 14 5 -3 7 -11 5 -18 -4
-9 18 -13 82 -14 71 -2 88 0 100 15 11 14 12 15 7 1 -5 -15 50 -17 665 -18
l670 -1 -4 274 c-2 150 -5 279 -7 287 -5 22 -20 29 -58 28 l-35 -1 30 -7 30
-7 -28 -7 c-18 -5 -34 -3 -42 3 -10 9 -16 7 -24 -9 -14 -26 -14 -31 2 -26 23
8 87 15 87 10 0 -3 -10 -10 -22 -15 l-23 -9 22 0 c29 -1 53 -11 53 -23 0 -6
-13 -7 -31 -3 -17 4 -40 8 -52 9 -12 2 -32 6 -44 10 -13 4 -34 0 -57 -14 -51
-28 -112 -26 -159 5 -20 14 -37 30 -37 36 0 19 -65 49 -109 49 -33 0 -51 6
-69 23 -13 12 -36 22 -50 23 -15 0 -47 6 -72 13 -120 34 -123 34 -136 16 -18
-25 -60 -16 -57 13 4 30 -13 28 -21 -3 -7 -29 -21 -32 -35 -7 -10 16 -10 16
-11 0 0 -10 -6 -18 -14 -18 -16 0 -31 63 -16 68 5 2 7 9 4 14 -4 6 -2 8 4 5 5
-4 9 -15 7 -25 -1 -9 0 -11 2 -4 3 8 13 12 24 9 35 -9 14 17 -22 28 -19 6 -50
19 -69 29 -19 11 -53 21 -75 22 -49 4 -249 30 -325 43 -31 5 -62 5 -70 0 -12
-7 -12 -8 -1 -9 8 0 12 -3 9 -6 -4 -3 -16 -1 -28 6 -17 9 -26 7 -53 -16 -28
-24 -37 -26 -87 -21 -52 6 -219 54 -192 56 6 1 12 6 12 12 0 7 -10 5 -25 -5
-32 -21 -55 -20 -55 2 0 11 3 13 8 6 5 -8 15 -8 31 -2 42 15 -14 40 -69 30z
m-13 -62 c-1 -22 -17 -28 -17 -7 0 12 9 27 16 27 2 0 2 -9 1 -20z m515 -15 c5
-6 8 -5 8 3 0 7 5 10 10 7 16 -10 11 -25 -9 -25 -10 0 -24 7 -31 16 -11 12
-11 15 1 12 8 -2 17 -7 21 -13z m-432 -25 c0 -5 -4 -10 -10 -10 -5 0 -10 5
-10 10 0 6 5 10 10 10 6 0 10 -4 10 -10z m456 -38 c-10 -2 -22 0 -28 6 -6 6 0
7 19 4 21 -5 23 -7 9 -10z m-441 -27 c14 -13 25 -20 25 -16 0 19 32 19 50 1
20 -20 20 -20 20 5 0 31 20 33 21 3 0 -13 3 -17 6 -10 11 27 33 12 33 -23 0
-32 -2 -35 -30 -35 -22 0 -30 5 -30 18 -1 16 -1 16 -11 0 -11 -20 -39 -24 -56
-7 -8 8 -17 8 -31 0 -11 -6 -30 -11 -41 -11 -18 0 -21 6 -21 50 0 44 3 50 20
50 12 0 32 -11 45 -25z m150 15 c3 -5 -1 -10 -10 -10 -9 0 -13 5 -10 10 3 6 8
10 10 10 2 0 7 -4 10 -10z m478 -11 c-2 -11 11 -13 64 -11 38 1 70 8 75 15 11
18 21 1 23 -43 2 -28 -2 -40 -11 -40 -8 0 -14 11 -14 27 0 23 -13 25 -16 2 -1
-5 -2 -13 -3 -19 0 -5 -12 -10 -26 -10 -29 0 -45 28 -24 41 11 6 8 9 -8 9 -18
0 -23 -6 -23 -26 0 -24 -2 -25 -47 -22 -44 3 -48 5 -51 31 -3 22 1 30 17 34
12 3 21 12 21 20 0 8 6 13 13 10 6 -2 11 -10 10 -18z m-270 -1 c3 -10 8 -10
21 1 20 17 33 7 17 -13 -10 -12 -9 -20 4 -40 16 -24 16 -26 1 -26 -9 0 -19 7
-23 16 -5 15 -7 15 -15 0 -16 -29 -28 -17 -28 29 0 42 13 61 23 33z m503 -64
c-9 -22 -46 -17 -55 9 -10 26 2 45 32 49 17 2 23 -3 25 -20 2 -13 1 -30 -2
-38z m-636 21 c0 -19 -4 -35 -10 -35 -5 0 -10 11 -10 25 0 14 -4 25 -10 25 -5
0 -10 -11 -10 -25 0 -14 -4 -25 -10 -25 -5 0 -10 16 -10 35 0 32 2 35 30 35
28 0 30 -3 30 -35z m70 0 c0 -31 -3 -35 -25 -35 -29 0 -45 28 -24 41 11 7 11
9 1 9 -7 0 -10 5 -7 10 3 6 17 10 31 10 21 0 24 -5 24 -35z m178 23 c9 -9 12
-9 12 1 0 8 11 11 33 9 28 -3 32 -7 35 -35 3 -26 -1 -33 -14 -33 -11 0 -15 6
-11 20 3 11 1 23 -4 26 -5 3 -9 -6 -9 -20 0 -16 -6 -26 -15 -26 -8 0 -15 5
-15 12 0 9 -3 9 -12 0 -18 -18 -46 -14 -58 9 -20 37 28 67 58 37z m-471 -154
c7 -18 -12 -64 -27 -64 -16 0 -41 46 -34 64 8 20 53 21 61 0z m88 -10 c-14
-22 -15 -28 -4 -35 10 -6 8 -9 -8 -9 -27 0 -28 8 -8 37 14 20 13 22 -2 26 -11
3 -6 5 11 6 l28 1 -17 -26z m88 2 c7 2 13 -6 13 -21 2 -20 -1 -23 -11 -15 -10
8 -14 7 -18 -2 -3 -7 -5 5 -5 27 0 22 2 32 5 23 2 -9 10 -15 16 -12z m370 10
c4 -9 14 -12 25 -9 23 6 35 -8 26 -31 -9 -22 -33 -20 -42 4 l-8 21 -22 -21
-22 -21 0 36 c0 28 4 35 19 35 10 0 21 -6 24 -14z m150 -10 c7 2 12 -5 12 -20
0 -17 -3 -22 -12 -15 -7 7 -13 5 -16 -3 -3 -7 -5 5 -5 27 0 22 2 32 5 23 2 -9
10 -15 16 -12z m-76 -23 c-3 -10 -5 -4 -5 12 0 17 2 24 5 18 2 -7 2 -21 0 -30z
m-477 1 c0 -18 -5 -25 -17 -22 -23 4 -29 28 -6 29 16 0 16 1 -2 9 -19 8 -19 9
3 9 17 1 22 -5 22 -25z m100 6 c0 -24 -29 -38 -40 -20 -12 19 -1 40 21 40 12
0 19 -7 19 -20z m50 -5 c0 -14 -5 -25 -11 -25 -7 0 -17 -7 -23 -16 -9 -12 -11
-7 -8 25 3 32 8 41 23 41 14 0 19 -7 19 -25z m50 0 c0 -18 -5 -25 -20 -25 -11
0 -20 7 -20 15 0 8 8 15 18 15 14 0 15 2 2 10 -13 8 -12 10 3 10 12 0 17 -8
17 -25z m49 -2 c-2 -24 -2 -25 -6 -5 -2 12 -8 22 -13 22 -5 0 -11 -10 -13 -22
-4 -20 -4 -19 -6 5 -1 21 4 27 19 27 15 0 20 -6 19 -27z m51 1 c0 -33 -33 -30
-38 4 -3 17 2 22 17 22 16 0 21 -6 21 -26z m210 16 c-10 -6 -11 -10 -2 -10 6
0 12 -7 12 -15 0 -8 -8 -15 -17 -15 -15 0 -16 2 -3 10 10 6 11 10 3 10 -7 0
-13 7 -13 15 0 8 8 15 18 15 14 0 15 -2 2 -10z m108 -18 c3 -17 -2 -22 -17
-22 -12 0 -21 6 -21 15 0 8 6 15 13 15 8 0 7 4 -3 11 -12 8 -12 10 5 7 12 -2
21 -12 23 -26z m-483 -171 c-7 -6 -55 48 -55 62 0 4 14 -6 31 -24 17 -17 27
-34 24 -38z m-410 -101 c3 -5 -1 -10 -9 -10 -9 0 -16 5 -16 10 0 6 4 10 9 10
6 0 13 -4 16 -10z m1820 -30 c12 -2 -84 -31 -105 -32 -8 -1 -26 -9 -39 -20
-26 -20 -41 -23 -41 -8 0 6 7 10 15 10 25 0 18 40 -7 42 -41 2 76 14 122 11
25 -1 50 -3 55 -3z m-1669 -24 c22 -8 53 -20 69 -27 17 -7 32 -13 35 -13 3 -1
14 -7 25 -14 18 -11 17 -12 -10 -6 -39 8 -119 36 -125 44 -3 4 -18 12 -35 18
-16 6 -23 11 -14 11 9 1 34 -5 55 -13z m261 -32 c-3 -3 -12 -4 -19 -1 -8 3 -5
6 6 6 11 1 17 -2 13 -5z m-237 -29 c0 -12 -19 -12 -23 0 -4 9 -1 12 9 8 7 -3
14 -7 14 -8z m30 -18 c0 -5 -4 -5 -10 -2 -5 3 -10 14 -10 23 0 15 2 15 10 2 5
-8 10 -19 10 -23z m90 -17 c32 0 23 -15 -10 -18 -37 -3 -70 13 -70 34 0 13 4
13 30 -1 16 -8 38 -15 50 -15z m51 20 c5 0 9 -8 9 -17 0 -11 -3 -14 -8 -7 -4
6 -16 16 -27 23 -17 10 -17 12 -2 7 10 -3 23 -6 28 -6z m54 -20 c3 -5 -3 -10
-15 -10 -12 0 -18 5 -15 10 3 6 10 10 15 10 5 0 12 -4 15 -10z m-30 -41 c11
-17 -1 -21 -15 -4 -8 9 -8 15 -2 15 6 0 14 -5 17 -11z m140 1 c3 -5 2 -10 -4
-10 -5 0 -13 5 -16 10 -3 6 -2 10 4 10 5 0 13 -4 16 -10z m-70 -20 l20 -9 -20
0 c-11 0 -29 4 -40 9 l-20 9 20 0 c11 0 29 -4 40 -9z"/>
<path d="M520 2264 c0 -31 23 -28 28 4 2 15 -2 22 -12 22 -11 0 -16 -9 -16
-26z"/>
<path d="M610 2254 c0 -8 5 -12 10 -9 6 3 10 10 10 16 0 5 -4 9 -10 9 -5 0
-10 -7 -10 -16z"/>
<path d="M1150 2255 c0 -8 5 -15 10 -15 6 0 10 7 10 15 0 8 -4 15 -10 15 -5 0
-10 -7 -10 -15z"/>
<path d="M1192 2250 c0 -14 2 -19 5 -12 2 6 2 18 0 25 -3 6 -5 1 -5 -13z"/>
<path d="M1390 2255 c0 -8 5 -15 10 -15 6 0 10 7 10 15 0 8 -4 15 -10 15 -5 0
-10 -7 -10 -15z"/>
<path d="M1006 2261 c-4 -7 -5 -15 -2 -18 9 -9 19 4 14 18 -4 11 -6 11 -12 0z"/>
<path d="M1080 2115 c0 -8 5 -15 10 -15 6 0 10 7 10 15 0 8 -4 15 -10 15 -5 0
-10 -7 -10 -15z"/>
<path d="M1132 2101 c2 -7 7 -12 11 -12 12 1 9 15 -3 20 -7 2 -11 -2 -8 -8z"/>
<path d="M780 2095 c0 -8 5 -15 10 -15 6 0 10 7 10 15 0 8 -4 15 -10 15 -5 0
-10 -7 -10 -15z"/>
<path d="M830 2095 c0 -8 5 -15 10 -15 6 0 10 7 10 15 0 8 -4 15 -10 15 -5 0
-10 -7 -10 -15z"/>
<path d="M2107 2274 c-4 -4 -7 -36 -7 -72 0 -62 1 -64 23 -57 28 9 46 9 75 0
23 -7 23 -7 20 61 l-3 69 -50 3 c-28 2 -54 0 -58 -4z m101 -67 l3 -57 -26 12
c-21 9 -31 9 -46 0 -10 -7 -21 -12 -24 -12 -8 0 -6 106 2 114 4 4 25 6 48 4
l40 -3 3 -58z"/>
<path d="M2148 2213 c6 -2 18 -2 25 0 6 3 1 5 -13 5 -14 0 -19 -2 -12 -5z"/>
<path d="M3230 2090 c0 -5 5 -10 10 -10 6 0 10 5 10 10 0 6 -4 10 -10 10 -5 0
-10 -4 -10 -10z"/>
<path d="M694 1269 c-3 -6 0 -18 9 -26 18 -18 37 -9 37 18 0 21 -34 27 -46 8z"/>
<path d="M794 1265 c-4 -9 -2 -21 4 -27 15 -15 44 -1 40 19 -4 23 -36 29 -44
8z"/>
<path d="M694 1159 c-3 -6 0 -18 9 -26 18 -18 37 -9 37 18 0 21 -34 27 -46 8z"/>
<path d="M790 1151 c0 -24 25 -34 40 -16 15 18 5 35 -21 35 -12 0 -19 -7 -19
-19z"/>
<path d="M3380 2095 c0 -8 4 -15 9 -15 5 0 11 7 15 15 3 9 0 15 -9 15 -8 0
-15 -7 -15 -15z"/>
</g>
</svg>
