<?xml version="1.0" standalone="no"?>
<!DOCTYPE svg PUBLIC "-//W3C//DTD SVG 20010904//EN"
 "http://www.w3.org/TR/2001/REC-SVG-20010904/DTD/svg10.dtd">
<svg version="1.0" xmlns="http://www.w3.org/2000/svg"
 width="900.000000pt" height="1077.000000pt" viewBox="0 0 900.000000 1077.000000"
 preserveAspectRatio="xMidYMid meet">

<g transform="translate(0.000000,1077.000000) scale(0.100000,-0.100000)"
fill="#000000" stroke="none">
<path d="M6640 9690 c0 -5 7 -10 15 -10 8 0 15 5 15 10 0 6 -7 10 -15 10 -8 0
-15 -4 -15 -10z"/>
<path d="M6123 9333 c-24 -2 -43 -8 -43 -12 0 -5 -16 -12 -36 -16 -20 -3 -43
-12 -50 -18 -32 -28 -41 -34 -67 -41 -15 -3 -35 -15 -45 -26 -9 -11 -22 -20
-29 -20 -7 0 -13 -7 -13 -15 0 -8 -9 -15 -20 -15 -10 0 -23 -6 -27 -13 -4 -6
-20 -18 -35 -26 -15 -8 -33 -27 -40 -43 -7 -15 -19 -28 -25 -28 -7 0 -13 -9
-13 -21 0 -12 -8 -23 -19 -26 -11 -3 -21 -13 -24 -24 -3 -10 -12 -19 -21 -19
-9 0 -16 -8 -16 -20 0 -11 -4 -20 -10 -20 -5 0 -10 -5 -10 -12 0 -6 -6 -19
-14 -27 -7 -9 -21 -40 -32 -68 -10 -29 -22 -53 -26 -53 -4 0 -8 -6 -8 -14 0
-7 -7 -19 -15 -26 -8 -7 -15 -25 -15 -41 0 -15 -7 -35 -17 -44 -9 -9 -18 -39
-21 -66 -3 -33 -9 -49 -18 -49 -10 0 -14 -13 -14 -40 0 -22 -4 -40 -10 -40 -5
0 -10 -18 -10 -40 0 -22 -4 -40 -10 -40 -5 0 -10 -18 -10 -40 0 -27 -4 -40
-14 -40 -9 0 -17 -32 -26 -120 -9 -79 -17 -120 -25 -120 -8 0 -14 -36 -18
-117 -4 -64 -10 -119 -15 -122 -13 -9 -38 -239 -31 -286 4 -29 8 -35 13 -23 4
9 20 21 36 28 16 7 31 18 34 26 3 8 15 14 26 14 13 0 20 7 20 20 0 12 7 20 16
20 9 0 18 9 21 20 3 11 14 20 24 20 12 0 19 7 19 20 0 12 7 20 16 20 9 0 18 9
21 20 3 11 12 20 20 20 15 0 63 47 63 61 0 5 9 9 20 9 11 0 20 4 20 9 0 12 69
81 81 81 5 0 9 9 9 20 0 11 4 20 9 20 15 0 61 49 61 65 0 8 7 15 16 15 9 0 18
9 21 20 3 11 14 20 24 20 12 0 19 7 19 20 0 11 7 20 15 20 23 0 30 30 50 203
10 86 22 157 27 157 4 0 8 18 8 40 0 22 5 40 10 40 6 0 10 18 10 40 0 22 5 40
10 40 6 0 10 18 10 40 0 22 5 40 10 40 6 0 10 18 10 39 0 22 4 41 8 43 4 2 18
20 31 41 12 20 27 37 32 37 5 0 9 5 9 11 0 14 55 69 69 69 6 0 11 5 11 10 0 6
18 10 40 10 22 0 40 -4 40 -10 0 -5 17 -10 38 -10 35 0 39 -4 62 -50 21 -44
24 -64 24 -157 -1 -72 -5 -108 -12 -111 -7 -2 -12 -21 -12 -43 0 -21 -4 -39
-10 -39 -5 0 -10 -18 -10 -40 0 -22 -4 -40 -9 -40 -5 0 -12 -18 -16 -40 -4
-22 -10 -40 -15 -40 -4 0 -11 -11 -14 -25 -4 -14 -11 -25 -16 -25 -6 0 -10
-13 -10 -30 0 -16 -4 -30 -10 -30 -5 0 -12 -11 -16 -25 -3 -14 -10 -25 -14
-25 -4 0 -11 -11 -14 -25 -4 -14 -11 -25 -16 -25 -6 0 -10 -6 -10 -13 0 -6
-126 -138 -280 -292 -154 -154 -280 -286 -280 -292 0 -7 -7 -13 -15 -13 -8 0
-19 -9 -25 -20 -6 -11 -14 -20 -18 -20 -4 0 -67 -59 -141 -130 -73 -72 -139
-130 -147 -130 -8 0 -14 -7 -14 -16 0 -9 -8 -18 -18 -21 -10 -2 -22 -14 -27
-26 -6 -11 -30 -31 -55 -44 -24 -13 -48 -30 -53 -38 -4 -8 -17 -15 -27 -15
-13 0 -20 -7 -20 -19 0 -10 -9 -21 -20 -24 -11 -3 -20 -12 -20 -21 0 -9 -8
-16 -20 -16 -17 0 -20 -7 -20 -40 0 -30 4 -40 16 -40 14 0 15 -10 9 -77 -4
-43 -10 -80 -14 -83 -9 -6 -31 -183 -24 -190 2 -3 9 3 14 13 6 9 19 17 30 17
22 0 49 22 49 40 0 17 31 8 44 -13 8 -13 8 -19 0 -25 -7 -4 -15 -42 -19 -84
-4 -43 -11 -78 -15 -78 -4 0 -11 -36 -15 -80 -4 -44 -10 -80 -15 -80 -4 0 -13
-54 -20 -120 -9 -79 -17 -120 -25 -120 -8 0 -14 -36 -18 -117 -4 -66 -11 -119
-17 -121 -5 -2 -10 -21 -10 -43 0 -21 -4 -39 -10 -39 -6 0 -10 -33 -10 -80 0
-60 -3 -80 -13 -80 -15 0 -37 -160 -37 -262 0 -45 -3 -58 -15 -58 -11 0 -15
-11 -15 -40 0 -29 -4 -40 -15 -40 -16 0 -21 -64 -19 -240 0 -41 -1 -58 -3 -37
-3 21 -9 37 -17 37 -9 0 -17 -35 -26 -120 -7 -66 -16 -120 -20 -120 -8 0 -30
-188 -30 -262 0 -45 -3 -58 -15 -58 -11 0 -15 -11 -15 -40 0 -27 -4 -40 -14
-40 -9 0 -17 -32 -26 -120 -7 -66 -16 -120 -20 -120 -4 0 -13 -54 -20 -120 -7
-66 -16 -120 -20 -120 -4 0 -13 -54 -20 -120 -7 -66 -17 -120 -21 -120 -5 0
-9 -17 -9 -39 0 -35 3 -39 31 -45 44 -9 562 -7 575 2 6 4 19 78 29 165 12 102
23 157 30 157 8 0 14 38 18 117 4 66 11 119 17 121 6 2 10 38 10 83 0 43 4 79
9 79 5 0 12 36 16 80 4 44 11 80 15 80 4 0 11 36 15 80 4 44 11 80 16 80 5 0
9 18 9 40 0 22 4 40 9 40 5 0 12 36 16 80 4 44 11 80 15 80 4 0 11 36 15 80 4
44 11 80 15 80 4 0 11 36 15 80 4 44 11 80 16 80 5 0 9 18 9 40 0 22 4 40 9
40 5 0 12 36 16 80 4 44 11 80 16 80 5 0 9 18 9 40 0 22 4 40 9 40 5 0 12 36
16 80 5 58 11 80 21 80 10 0 14 12 14 40 0 22 5 40 10 40 6 0 10 18 10 40 0
22 5 40 10 40 6 0 10 18 10 40 0 28 4 40 14 40 10 0 16 22 21 80 5 58 11 80
21 80 10 0 14 12 14 40 0 22 5 40 10 40 6 0 10 18 10 40 0 32 4 40 18 40 12 0
21 13 29 43 18 67 37 117 45 117 5 0 8 9 8 20 0 11 7 20 15 20 9 0 19 8 22 17
11 28 89 103 107 103 9 0 16 7 16 15 0 11 13 15 54 15 35 0 60 -5 70 -15 8 -8
19 -15 25 -15 6 0 11 -9 11 -19 0 -10 7 -22 17 -25 15 -6 16 -30 10 -258 -4
-138 -10 -254 -15 -257 -5 -3 -12 -57 -15 -120 -4 -63 -11 -117 -15 -120 -5
-3 -17 -77 -27 -163 -10 -87 -22 -158 -26 -158 -4 0 -10 -36 -14 -80 -4 -44
-10 -80 -14 -80 -4 0 -16 -72 -26 -160 -10 -88 -22 -160 -25 -160 -4 0 -13
-54 -20 -120 -7 -66 -16 -120 -20 -120 -5 0 -11 -36 -15 -80 -5 -58 -11 -80
-21 -80 -11 0 -14 -18 -14 -80 0 -60 -3 -80 -14 -80 -9 0 -17 -32 -26 -120 -9
-82 -17 -120 -25 -120 -9 0 -15 -27 -20 -80 -4 -44 -11 -80 -16 -80 -5 0 -9
-18 -9 -40 0 -22 -4 -40 -9 -40 -5 0 -12 -36 -16 -80 -4 -44 -11 -80 -16 -80
-5 0 -9 -18 -9 -40 0 -29 -4 -40 -15 -40 -11 0 -15 -11 -15 -40 l0 -40 325 0
325 0 0 40 c0 22 5 40 10 40 6 0 10 18 10 40 0 22 5 40 10 40 6 0 10 18 10 40
0 22 4 40 9 40 5 0 12 36 16 80 5 55 11 80 20 80 9 0 15 25 20 80 4 44 11 80
16 80 5 0 9 18 9 40 0 22 4 40 9 40 5 0 12 36 16 80 5 58 11 80 21 80 10 0 14
12 14 40 0 22 5 40 10 40 6 0 10 18 10 40 0 22 4 40 9 40 5 0 12 36 16 80 4
44 11 80 16 80 5 0 9 18 9 40 0 22 4 40 9 40 5 0 12 36 16 80 4 44 11 80 15
80 4 0 11 36 15 80 4 44 11 80 15 80 4 0 11 36 15 80 4 44 11 80 16 80 5 0 9
26 9 58 0 71 31 335 40 342 7 5 19 202 25 420 5 166 -16 540 -31 540 -8 0 -14
28 -19 80 -5 58 -11 80 -21 80 -10 0 -14 12 -14 40 0 29 -4 40 -15 40 -8 0
-15 4 -15 8 0 8 -11 23 -50 69 -5 7 -10 19 -10 26 0 8 -9 17 -20 20 -11 3 -20
12 -20 21 0 9 -8 16 -20 16 -11 0 -20 6 -20 13 0 8 -18 20 -40 27 -27 9 -40
19 -40 32 0 14 -8 18 -40 18 -22 0 -40 5 -40 10 0 11 -87 13 -179 4 -50 -6
-61 -10 -61 -25 0 -16 -8 -19 -47 -19 -44 0 -113 -32 -113 -52 0 -5 -10 -8
-23 -8 -13 0 -32 -8 -43 -18 -10 -10 -27 -21 -36 -25 -10 -3 -18 -13 -18 -22
0 -8 -9 -15 -20 -15 -13 0 -20 -7 -20 -19 0 -10 -9 -21 -20 -24 -11 -3 -20
-12 -20 -21 0 -11 -9 -16 -30 -16 -28 0 -30 2 -30 40 0 22 4 40 9 40 5 0 12
36 16 80 4 44 11 80 15 80 4 0 11 37 15 83 8 101 22 157 38 157 16 0 87 72 87
88 0 7 7 12 15 12 8 0 19 9 25 20 6 11 17 20 25 20 8 0 15 5 15 10 0 6 6 10
14 10 7 0 16 9 19 21 3 11 15 23 26 26 12 3 21 12 21 19 0 8 5 14 11 14 14 0
69 55 69 69 0 6 5 11 11 11 14 0 69 55 69 69 0 6 5 11 11 11 14 0 69 55 69 69
0 6 5 11 10 11 6 0 10 7 10 15 0 8 9 19 20 25 11 6 20 17 20 25 0 8 7 15 15
15 8 0 15 6 15 13 0 6 16 25 35 42 19 16 35 38 35 47 0 10 7 18 16 18 9 0 18
9 21 20 3 11 14 20 24 20 12 0 19 7 19 18 0 10 9 25 20 35 11 9 20 26 20 38 0
12 8 23 20 26 11 3 20 12 20 20 0 8 6 20 13 27 6 8 19 24 27 36 8 12 21 28 28
36 6 7 12 25 12 39 0 24 54 115 73 123 4 2 7 21 7 43 0 28 4 39 15 39 11 0 15
11 15 40 0 27 4 40 14 40 10 0 15 31 20 133 8 154 0 267 -20 267 -7 0 -15 18
-19 40 -4 22 -11 40 -16 40 -5 0 -9 8 -9 18 0 10 -9 25 -20 35 -11 9 -20 26
-20 38 0 12 -8 23 -20 26 -11 3 -20 14 -20 24 0 12 -7 19 -20 19 -12 0 -20 7
-20 16 0 9 -9 18 -20 21 -11 3 -20 14 -20 24 0 11 -7 19 -16 19 -8 0 -22 6
-29 13 -33 29 -45 37 -54 37 -5 0 -16 7 -24 15 -15 15 -227 28 -314 18z m-503
-1447 c0 -3 -4 -8 -10 -11 -5 -3 -10 -1 -10 4 0 6 5 11 10 11 6 0 10 -2 10 -4z
m296 -1033 c-10 -10 -19 5 -10 18 6 11 8 11 12 0 2 -7 1 -15 -2 -18z m-936
-172 c0 -6 -4 -13 -10 -16 -5 -3 -10 1 -10 9 0 9 5 16 10 16 6 0 10 -4 10 -9z
m805 -241 c-3 -5 -10 -10 -16 -10 -5 0 -9 5 -9 10 0 6 7 10 16 10 8 0 12 -4 9
-10z m-85 -216 c0 -8 -4 -14 -10 -14 -5 0 -10 9 -10 21 0 11 5 17 10 14 6 -3
10 -13 10 -21z m-900 -1494 c0 -22 -4 -40 -10 -40 -5 0 -10 18 -10 40 0 22 5
40 10 40 6 0 10 -18 10 -40z"/>
<path d="M6845 7860 c-22 -11 -43 -27 -48 -35 -4 -8 -17 -15 -27 -15 -11 0
-20 -7 -20 -15 0 -8 -7 -15 -15 -15 -9 0 -15 -9 -15 -25 0 -14 -3 -25 -7 -25
-5 0 -19 -16 -32 -35 -22 -32 -23 -41 -16 -120 4 -47 10 -85 15 -85 4 0 11
-11 14 -25 4 -14 11 -25 16 -25 6 0 10 -9 10 -20 0 -11 6 -20 13 -20 6 0 25
-16 42 -35 18 -21 39 -35 52 -35 13 0 23 -4 23 -10 0 -6 38 -10 95 -10 57 0
95 4 95 10 0 6 18 10 40 10 22 0 40 5 40 11 0 12 55 69 67 69 9 0 33 48 33 66
0 7 4 14 9 16 14 5 26 158 12 158 -6 0 -11 17 -11 40 0 29 -4 40 -15 40 -8 0
-15 9 -15 20 0 12 -7 20 -16 20 -9 0 -18 9 -21 20 -3 11 -13 20 -23 20 -10 0
-20 4 -22 9 -1 5 -21 20 -42 35 -33 22 -49 26 -115 26 -57 0 -87 -5 -116 -20z"/>
<path d="M7316 7235 c4 -9 15 -20 25 -26 16 -8 19 -6 19 16 0 20 -5 25 -25 25
-18 0 -23 -4 -19 -15z"/>
<path d="M4720 6885 c0 -13 -36 -15 -240 -15 -153 0 -240 -4 -240 -10 0 -5
-18 -10 -40 -10 l-40 0 0 -80 0 -80 40 0 40 0 0 -40 0 -40 -55 0 -55 0 0 -80
c0 -64 3 -80 15 -80 13 0 15 -29 15 -200 l0 -200 -40 0 -40 0 0 40 c0 22 -4
40 -10 40 -6 0 -10 -33 -10 -80 l0 -80 90 0 90 0 0 -120 0 -120 -40 0 -40 0 0
-40 0 -40 40 0 40 0 0 40 0 40 40 0 40 0 0 80 0 80 80 0 80 0 0 80 0 80 40 0
40 0 0 40 0 40 40 0 40 0 0 80 c0 64 3 80 15 80 12 0 15 16 15 80 0 64 -3 80
-15 80 -11 0 -15 11 -15 40 l0 40 40 0 40 0 0 120 c0 73 4 120 10 120 6 0 10
18 10 40 0 29 4 40 15 40 12 0 13 4 6 19 -14 24 -41 35 -41 16z m-160 -555 l0
-40 -40 0 -40 0 0 40 0 40 40 0 40 0 0 -40z m-80 -240 l0 -40 -40 0 -40 0 0
40 0 40 40 0 40 0 0 -40z"/>
<path d="M1673 6855 c-15 -17 -17 -85 -3 -85 6 0 10 -18 10 -40 l0 -40 -40 0
-40 0 0 -40 c0 -29 -4 -40 -15 -40 -12 0 -15 -16 -15 -80 0 -79 0 -80 -25 -80
l-25 0 0 -120 c0 -73 -4 -120 -10 -120 -5 0 -10 18 -10 40 0 29 -4 40 -15 40
-11 0 -15 -11 -15 -40 0 -29 -4 -40 -15 -40 -12 0 -15 -16 -15 -80 0 -64 -3
-80 -15 -80 -11 0 -15 -11 -15 -40 0 -36 -2 -40 -25 -40 -25 0 -25 -1 -25 -79
0 -61 -3 -80 -15 -85 -11 -4 -15 -23 -15 -81 0 -73 -1 -75 -25 -75 -25 0 -25
-1 -25 -80 0 -64 -3 -80 -15 -80 -11 0 -15 -11 -15 -40 0 -35 -3 -40 -24 -40
-21 0 -24 -5 -29 -52 -3 -29 -2 -101 1 -160 3 -78 2 -108 -7 -108 -6 0 -11 17
-11 40 0 29 -4 40 -15 40 -11 0 -15 -11 -15 -40 0 -29 -4 -40 -15 -40 -12 0
-15 -16 -15 -80 0 -47 -4 -80 -10 -80 -5 0 -10 -18 -10 -40 0 -22 5 -40 10
-40 6 0 10 -18 10 -40 0 -22 -4 -40 -10 -40 -5 0 -10 18 -10 40 0 29 -4 40
-15 40 -11 0 -15 -11 -15 -40 0 -29 -4 -40 -15 -40 -16 0 -23 -90 -17 -242 2
-43 -1 -78 -6 -78 -5 0 -13 -36 -16 -80 -4 -44 -12 -80 -17 -80 -5 0 -9 -83
-9 -200 0 -171 2 -200 15 -200 13 0 15 29 15 200 0 127 4 200 10 200 6 0 10
-73 10 -200 0 -127 -4 -200 -10 -200 -5 0 -10 -18 -10 -40 0 -22 5 -40 10 -40
6 0 10 -33 10 -80 l0 -80 30 0 c28 0 30 -2 30 -40 0 -22 5 -40 10 -40 6 0 10
-18 10 -40 0 -22 4 -40 9 -40 12 0 71 -59 71 -71 0 -5 5 -9 11 -9 14 0 69 -55
69 -69 0 -7 29 -11 79 -11 61 0 80 -3 85 -15 8 -22 144 -22 152 0 5 12 24 15
85 15 l79 0 0 30 c0 28 2 30 40 30 22 0 40 5 40 10 0 6 18 10 40 10 35 0 40 3
40 23 0 29 29 57 58 57 12 0 22 4 22 9 0 12 59 71 71 71 5 0 9 8 9 18 1 25 35
62 59 62 20 0 21 6 21 80 l0 80 50 0 50 0 0 40 c0 22 -4 40 -10 40 -6 0 -10
60 -10 160 0 136 -2 160 -15 160 -11 0 -15 -11 -15 -40 0 -36 -2 -40 -25 -40
-20 0 -25 -5 -25 -23 0 -29 -29 -57 -58 -57 -21 0 -22 -5 -22 -80 l0 -80 -80
0 c-79 0 -80 0 -80 -25 0 -25 -1 -25 -80 -25 -79 0 -80 0 -80 25 0 21 -5 25
-28 25 l-28 0 -12 103 c-7 56 -12 199 -12 318 0 184 2 218 15 223 9 3 15 19
15 41 0 19 5 35 10 35 6 0 10 18 10 40 0 29 4 40 15 40 13 0 15 20 15 120 0
104 2 120 16 120 15 0 16 10 10 78 -4 42 -11 79 -17 80 -5 2 -9 21 -9 43 0 39
0 39 40 39 l40 0 0 79 c0 61 3 80 15 85 9 3 15 19 15 41 0 24 -4 35 -15 35
-12 0 -15 20 -15 120 l0 120 50 0 50 0 0 40 c0 22 -4 40 -10 40 -5 0 -10 18
-10 40 l0 40 40 0 40 0 0 40 c0 22 5 40 10 40 6 0 10 18 10 40 0 22 -4 40 -10
40 -5 0 -10 -18 -10 -40 l0 -40 -40 0 -40 0 0 80 0 80 40 0 40 0 0 40 0 40 40
0 40 0 0 40 c0 29 4 40 15 40 11 0 15 11 15 40 0 29 -4 40 -15 40 -11 0 -15
11 -15 40 l0 40 40 0 40 0 0 80 c0 64 3 80 15 80 11 0 15 11 15 40 0 35 3 40
24 40 21 0 24 5 29 58 4 31 3 90 0 130 l-6 72 -276 0 c-226 -1 -278 -3 -288
-15z m247 -765 l0 -40 -40 0 -40 0 0 40 0 40 40 0 40 0 0 -40z m-400 -400 l0
-40 -40 0 -40 0 0 40 0 40 40 0 40 0 0 -40z m240 0 l0 -40 -40 0 -40 0 0 40 0
40 40 0 40 0 0 -40z m-80 -920 c0 -47 4 -80 10 -80 6 0 10 -18 10 -40 0 -22
-4 -40 -10 -40 -5 0 -10 18 -10 40 l0 40 -40 0 -40 0 0 80 0 80 40 0 40 0 0
-80z m-160 -120 l0 -40 40 0 40 0 0 -40 0 -40 -40 0 -40 0 0 -80 0 -80 -40 0
-40 0 0 80 0 80 40 0 40 0 0 40 0 40 -40 0 -40 0 0 40 0 40 40 0 40 0 0 -40z"/>
<path d="M3520 6860 c0 -5 18 -10 40 -10 22 0 40 5 40 10 0 6 -18 10 -40 10
-22 0 -40 -4 -40 -10z"/>
<path d="M3010 6690 c0 -64 3 -80 15 -80 12 0 15 16 15 80 0 64 -3 80 -15 80
-12 0 -15 -16 -15 -80z"/>
<path d="M3120 6650 l0 -40 40 0 40 0 0 40 0 40 -40 0 -40 0 0 -40z"/>
<path d="M3200 6490 l0 -40 40 0 40 0 0 40 0 40 -40 0 -40 0 0 -40z"/>
<path d="M3520 6490 c0 -29 4 -40 15 -40 11 0 15 11 15 40 0 29 -4 40 -15 40
-11 0 -15 -11 -15 -40z"/>
<path d="M2940 6330 c0 -22 5 -40 10 -40 6 0 10 18 10 40 0 22 -4 40 -10 40
-5 0 -10 -18 -10 -40z"/>
<path d="M3280 6330 l0 -40 40 0 40 0 0 40 0 40 -40 0 -40 0 0 -40z"/>
<path d="M3440 6090 c0 -22 5 -40 10 -40 6 0 10 18 10 40 0 22 -4 40 -10 40
-5 0 -10 -18 -10 -40z"/>
<path d="M2860 5970 c0 -47 4 -80 10 -80 6 0 10 33 10 80 0 47 -4 80 -10 80
-6 0 -10 -33 -10 -80z"/>
<path d="M3443 5930 c0 -25 2 -35 4 -22 2 12 2 32 0 45 -2 12 -4 2 -4 -23z"/>
<path d="M4560 5930 c0 -22 5 -40 10 -40 6 0 10 18 10 40 0 22 -4 40 -10 40
-5 0 -10 -18 -10 -40z"/>
<path d="M3760 5874 c0 -22 -41 -64 -62 -64 -10 0 -18 -8 -18 -17 0 -10 -12
-29 -26 -42 -25 -24 -25 -28 -19 -103 7 -73 6 -78 -12 -78 -17 0 -21 -12 -31
-102 -7 -57 -12 -129 -12 -160 0 -45 -3 -58 -15 -58 -11 0 -15 -11 -15 -40 0
-27 -4 -40 -14 -40 -10 0 -15 -25 -19 -97 -17 -258 -20 -298 -27 -303 -4 -3
-15 -22 -23 -42 -13 -31 -13 -37 -1 -42 8 -3 14 0 14 7 0 7 9 30 20 52 11 22
20 54 20 72 0 29 3 33 25 33 23 0 25 4 25 40 0 27 4 40 14 40 9 0 17 32 26
120 9 88 17 120 26 120 10 0 14 13 14 40 0 27 4 40 14 40 17 0 28 98 19 180
-4 42 -2 60 6 60 6 0 11 17 11 40 0 29 4 40 15 40 11 0 15 11 15 40 0 26 4 40
13 40 10 0 17 30 25 103 15 124 15 137 2 137 -5 0 -10 -7 -10 -16z"/>
<path d="M4400 5730 l0 -80 40 0 40 0 0 -40 c0 -29 4 -40 15 -40 11 0 15 11
15 40 0 29 -4 40 -15 40 -12 0 -15 16 -15 80 l0 80 -40 0 -40 0 0 -80z"/>
<path d="M3360 5690 c0 -29 4 -40 15 -40 11 0 15 11 15 40 0 29 -4 40 -15 40
-11 0 -15 -11 -15 -40z"/>
<path d="M2777 5643 c-4 -3 -7 -21 -7 -40 0 -23 5 -33 15 -33 11 0 15 11 15
40 0 38 -8 49 -23 33z"/>
<path d="M3970 5610 c0 -29 4 -40 15 -40 11 0 15 11 15 40 0 29 -4 40 -15 40
-11 0 -15 -11 -15 -40z"/>
<path d="M4400 5450 l0 -40 40 0 40 0 0 40 0 40 -40 0 -40 0 0 -40z"/>
<path d="M2690 5290 c0 -29 4 -40 15 -40 11 0 15 11 15 40 0 29 -4 40 -15 40
-11 0 -15 -11 -15 -40z"/>
<path d="M4400 5290 c0 -22 5 -40 10 -40 6 0 10 18 10 40 0 22 -4 40 -10 40
-5 0 -10 -18 -10 -40z"/>
<path d="M3900 5210 c0 -22 5 -40 10 -40 6 0 10 18 10 40 0 22 -4 40 -10 40
-5 0 -10 -18 -10 -40z"/>
<path d="M4240 5050 l0 -40 40 0 40 0 0 -40 c0 -29 4 -40 15 -40 11 0 15 11
15 40 0 29 -4 40 -15 40 -11 0 -15 11 -15 40 l0 40 -40 0 -40 0 0 -40z"/>
<path d="M2530 4810 c0 -29 4 -40 15 -40 11 0 15 11 15 40 0 29 -4 40 -15 40
-11 0 -15 -11 -15 -40z"/>
<path d="M3200 4810 c0 -29 4 -40 15 -40 11 0 15 11 15 40 0 29 -4 40 -15 40
-11 0 -15 -11 -15 -40z"/>
<path d="M4240 4650 c0 -22 5 -40 10 -40 6 0 10 18 10 40 0 22 -4 40 -10 40
-5 0 -10 -18 -10 -40z"/>
<path d="M3441 4624 c0 -11 3 -14 6 -6 3 7 2 16 -1 19 -3 4 -6 -2 -5 -13z"/>
<path d="M4160 4410 c0 -29 4 -40 15 -40 11 0 15 11 15 40 0 29 -4 40 -15 40
-11 0 -15 -11 -15 -40z"/>
<path d="M2483 4250 c0 -25 2 -35 4 -22 2 12 2 32 0 45 -2 12 -4 2 -4 -23z"/>
<path d="M2556 4166 c2 -66 4 -136 4 -158 l0 -38 80 0 80 0 0 -40 0 -40 40 0
40 0 0 40 0 40 40 0 40 0 0 -80 0 -80 -120 0 -120 0 0 40 c0 22 -4 40 -10 40
-5 0 -10 -18 -10 -40 0 -22 5 -40 10 -40 6 0 10 -18 10 -40 l0 -40 80 0 80 0
0 -40 0 -40 40 0 40 0 0 -80 0 -80 -40 0 -40 0 0 -40 0 -40 40 0 c22 0 40 -4
40 -10 0 -5 18 -10 40 -10 22 0 40 5 40 10 0 6 33 10 80 10 l80 0 0 -40 0 -40
120 0 120 0 0 40 0 40 40 0 c29 0 40 -4 40 -15 0 -11 11 -15 40 -15 l40 0 0
55 0 55 40 0 c30 0 40 -4 40 -16 0 -12 9 -14 38 -12 36 3 37 4 40 46 3 42 3
42 43 42 l39 0 0 50 0 50 40 0 40 0 0 80 0 80 -40 0 -40 0 0 -80 0 -80 -40 0
-40 0 0 40 0 40 -160 0 -160 0 0 -80 0 -80 -40 0 -40 0 0 -40 0 -40 -40 0 -40
0 0 40 0 40 -40 0 -40 0 0 -40 0 -40 -40 0 -40 0 0 40 0 40 -40 0 -40 0 0 40
0 40 80 0 80 0 0 40 0 40 -80 0 -80 0 0 160 0 160 -80 0 -80 0 0 -40 0 -40
-40 0 -40 0 0 40 0 40 -40 0 -40 0 0 40 c0 40 0 40 -40 40 l-39 0 -4 78 c-2
42 -3 23 -1 -42z"/>
<path d="M4080 4170 c0 -22 5 -40 10 -40 6 0 10 18 10 40 0 22 -4 40 -10 40
-5 0 -10 -18 -10 -40z"/>
<path d="M2583 3073 c6 -255 23 -463 39 -463 4 0 8 -18 8 -40 0 -28 4 -40 14
-40 10 0 16 -22 21 -80 4 -44 11 -80 16 -80 5 0 9 -18 9 -40 0 -29 4 -40 15
-40 11 0 15 -11 15 -39 0 -22 3 -41 8 -43 15 -7 52 -68 52 -88 0 -19 17 -58
31 -70 3 -3 15 -21 27 -42 16 -26 19 -37 10 -40 -8 -3 -5 -11 10 -23 12 -11
22 -27 22 -37 0 -10 6 -18 13 -18 12 0 28 -24 43 -62 3 -10 10 -18 15 -18 5 0
9 -8 9 -19 0 -10 9 -21 20 -24 12 -3 20 -14 20 -26 0 -12 9 -29 20 -38 11 -10
20 -25 20 -35 0 -10 5 -18 11 -18 14 0 69 -55 69 -69 0 -6 5 -11 11 -11 14 0
69 -55 69 -69 0 -6 5 -11 11 -11 14 0 69 -55 69 -69 0 -6 8 -11 18 -11 9 0 28
-12 41 -25 13 -14 27 -25 32 -25 5 0 9 -5 9 -10 0 -18 51 -60 72 -60 11 0 22
-9 25 -20 3 -11 14 -20 24 -20 11 0 19 -4 19 -9 0 -5 8 -11 18 -15 24 -8 56
-29 65 -44 4 -6 24 -12 42 -12 19 0 35 -4 35 -9 0 -5 17 -20 38 -32 20 -13 39
-27 40 -31 2 -4 21 -8 43 -8 21 0 39 -4 39 -9 0 -5 8 -11 18 -15 9 -3 24 -9
32 -14 32 -19 207 -72 238 -72 20 0 32 -5 32 -13 0 -10 43 -18 160 -32 88 -10
160 -22 160 -26 0 -12 402 -3 528 11 61 8 112 17 112 21 0 4 36 10 80 14 44 4
80 11 80 16 0 5 18 9 40 9 22 0 40 4 40 9 0 6 19 11 43 13 l42 3 0 95 c1 52 3
153 5 225 5 120 4 130 -13 133 -10 2 -27 -4 -38 -14 -10 -9 -41 -19 -69 -22
-33 -3 -50 -9 -50 -18 0 -10 -13 -14 -40 -14 -22 0 -40 -4 -40 -9 0 -5 -35
-12 -77 -16 -43 -4 -80 -11 -83 -16 -11 -17 -341 -32 -430 -20 -46 6 -112 11
-147 11 -35 0 -63 4 -63 10 0 6 -18 10 -40 10 -29 0 -40 4 -40 15 0 11 -11 15
-40 15 -22 0 -40 5 -40 10 0 6 -18 10 -40 10 -22 0 -40 4 -40 9 0 5 -8 11 -17
15 -10 3 -25 10 -33 15 -8 5 -43 17 -77 28 -35 10 -63 21 -63 25 0 4 -19 13
-41 20 -25 7 -44 19 -47 30 -2 10 -13 18 -23 18 -11 0 -19 3 -19 8 0 7 -30 25
-62 38 -10 3 -18 13 -18 20 0 8 -9 14 -20 14 -11 0 -20 4 -20 9 0 5 -18 16
-40 25 -22 9 -40 22 -40 30 0 7 -9 16 -20 19 -11 3 -20 12 -20 21 0 9 -7 16
-16 16 -9 0 -18 9 -21 20 -3 11 -14 20 -24 20 -12 0 -19 7 -19 19 0 10 -9 21
-20 24 -12 3 -20 14 -20 26 0 12 -9 29 -20 38 -11 10 -20 25 -20 35 0 10 -6
18 -13 18 -12 0 -28 24 -43 63 -3 9 -10 17 -15 17 -5 0 -9 5 -9 11 0 6 -7 17
-15 25 -8 9 -15 28 -15 43 0 16 -7 34 -15 41 -8 7 -15 19 -15 26 0 8 -4 14
-10 14 -5 0 -10 18 -10 40 0 29 -4 40 -15 40 -11 0 -15 11 -15 40 0 22 -4 40
-10 40 -5 0 -10 18 -10 40 0 29 -4 40 -15 40 -11 0 -15 11 -15 40 0 22 -4 40
-9 40 -10 0 -19 76 -35 316 -7 105 -16 196 -19 201 -4 6 -45 14 -92 18 -47 4
-85 10 -85 13 0 13 -56 33 -107 39 -47 5 -53 8 -53 29 0 17 -6 24 -20 24 -10
0 -23 7 -28 16 -5 10 -22 17 -38 18 -20 1 -32 8 -39 24 -5 12 -15 22 -22 22
-7 0 -13 6 -13 14 0 8 -8 13 -17 12 -13 -1 -19 7 -21 27 -2 15 -8 27 -14 27
-8 0 -9 -76 -5 -257z m1447 -1659 c0 -2 -7 -4 -15 -4 -8 0 -15 4 -15 10 0 5 7
7 15 4 8 -4 15 -8 15 -10z m-30 -334 c0 -5 -7 -7 -15 -4 -8 4 -15 8 -15 10 0
2 7 4 15 4 8 0 15 -4 15 -10z"/>
<path d="M5802 3129 c-37 -17 -49 -19 -75 -9 -40 14 -520 14 -525 0 -2 -6 -10
-10 -18 -10 -8 0 -14 -4 -14 -10 0 -5 -11 -10 -25 -10 -14 0 -25 5 -25 10 0 6
-18 10 -39 10 -22 0 -41 5 -43 12 -3 8 -39 12 -115 12 -95 0 -115 -3 -147 -22
-45 -27 -86 -28 -107 -3 -15 17 -36 18 -385 15 -203 -2 -420 -6 -483 -9 l-113
-4 -54 -53 c-29 -29 -54 -58 -54 -64 0 -6 -7 -18 -16 -25 -14 -12 -16 -27 -10
-104 4 -49 11 -91 16 -93 15 -5 12 -28 -5 -42 -12 -10 -15 -39 -15 -144 0
-184 -9 -176 205 -176 90 0 165 4 167 9 5 14 158 26 158 12 0 -7 38 -11 120
-11 73 0 120 4 120 10 0 6 18 10 40 10 23 0 40 -5 40 -11 0 -8 20 -10 68 -5
37 3 93 2 125 -3 64 -9 80 -1 98 46 7 19 14 23 32 18 12 -4 27 -14 34 -22 6
-8 36 -17 67 -20 31 -3 56 -10 56 -14 0 -5 36 -9 80 -9 64 0 80 3 80 15 0 11
11 15 40 15 22 0 40 5 40 10 0 6 18 10 40 10 28 0 40 -4 40 -14 0 -12 62 -15
398 -18 388 -3 499 1 511 20 3 5 23 17 43 27 32 14 40 25 53 68 16 55 21 217
6 217 -5 0 -7 66 -4 158 l6 157 -28 28 c-26 26 -32 27 -125 27 -53 0 -124 2
-156 5 -46 4 -69 0 -102 -16z m-1402 -64 l0 -25 120 0 c138 0 142 -4 80 -65
l-40 -40 2 -170 3 -170 27 2 c22 1 29 -4 34 -22 3 -13 3 -29 -1 -34 -3 -6 -1
-11 4 -11 6 0 11 -5 11 -12 0 -8 -31 -9 -113 -5 -142 8 -147 9 -147 57 l0 37
53 -3 c28 -2 44 -1 35 2 -13 4 -18 17 -19 47 -1 23 0 47 1 52 7 31 4 40 -15
37 -11 -1 -59 -2 -107 -2 l-88 1 0 -75 c0 -68 2 -74 19 -69 10 3 29 -1 41 -7
18 -10 20 -14 9 -21 -11 -7 -12 -12 -1 -29 6 -11 12 -22 12 -25 0 -3 -52 -5
-116 -5 -91 0 -119 3 -131 16 -13 13 -14 19 -3 39 7 13 22 25 34 27 20 3 21 8
21 178 0 163 -1 175 -19 178 -10 2 -22 -2 -27 -10 -6 -8 -9 1 -9 27 0 22 4 45
8 51 10 16 109 25 181 18 49 -6 61 -10 61 -25 0 -18 -54 -79 -71 -79 -5 0 -9
-24 -9 -54 l0 -55 87 -3 c101 -4 123 9 123 72 0 42 -37 92 -51 69 -13 -22 -26
30 -21 84 4 48 22 67 22 22z m1694 -15 c25 -9 26 -14 26 -80 0 -67 -1 -71 -27
-81 -33 -12 -53 -5 -60 21 -3 11 -12 20 -19 20 -8 0 -14 9 -14 20 0 18 -7 20
-55 20 -51 0 -56 -2 -66 -27 -8 -20 -7 -32 1 -43 6 -8 13 -23 16 -32 5 -14 18
-18 55 -18 27 0 49 -4 49 -9 0 -5 8 -12 18 -15 38 -15 62 -31 62 -43 0 -7 11
-13 24 -13 22 0 24 -5 31 -76 4 -44 3 -79 -2 -83 -5 -3 -12 -14 -16 -23 -3
-10 -13 -18 -22 -18 -8 0 -15 -9 -15 -20 0 -17 -7 -20 -40 -20 -22 0 -40 -4
-40 -10 0 -5 -18 -10 -40 -10 -22 0 -40 3 -40 8 0 8 -49 32 -67 32 -7 0 -13
-4 -13 -10 0 -5 -18 -10 -40 -10 l-40 0 0 90 0 90 33 -1 c17 0 55 -4 82 -9
l50 -7 -42 -2 c-31 -1 -43 -5 -43 -16 0 -8 4 -15 10 -15 5 0 12 -11 16 -24 5
-20 14 -25 54 -31 27 -4 63 -4 80 0 27 6 30 10 30 46 0 27 -4 39 -14 39 -8 0
-16 4 -18 9 -8 23 -83 61 -119 61 -22 0 -39 5 -39 10 0 6 -5 10 -11 10 -6 0
-27 17 -46 38 -33 35 -35 40 -29 92 3 33 11 59 21 66 9 7 20 25 24 41 l8 28
116 1 c64 0 120 3 124 7 9 9 17 9 47 -3z m-1054 -20 c0 -17 7 -20 40 -20 33 0
40 -3 40 -20 0 -12 7 -20 16 -20 9 0 18 -9 21 -20 3 -11 11 -20 18 -20 8 0 14
-22 18 -60 8 -68 -2 -180 -14 -180 -5 0 -9 -18 -9 -40 0 -36 -2 -40 -25 -40
-17 0 -25 -6 -25 -17 0 -22 -42 -63 -64 -63 -9 0 -16 -4 -16 -10 0 -6 -33 -10
-80 -10 -47 0 -80 4 -80 10 0 6 -18 10 -40 10 -22 0 -40 5 -40 10 0 6 -7 10
-15 10 -8 0 -19 9 -25 20 -6 11 -17 20 -25 20 -9 0 -15 10 -15 25 0 14 -4 25
-9 25 -5 0 -14 14 -20 31 -21 60 -9 259 15 259 8 0 14 5 14 11 0 6 13 24 29
40 16 16 34 29 40 29 6 0 11 6 11 14 0 16 34 21 163 24 71 2 77 0 77 -18z
m640 2 c0 -11 5 -22 11 -24 8 -3 9 -27 3 -83 -4 -44 -10 -70 -12 -57 -3 18
-10 22 -43 22 -39 0 -39 0 -39 40 l0 40 -84 0 c-107 0 -116 -7 -105 -86 4 -31
13 -60 20 -65 20 -12 38 1 47 34 5 21 17 34 36 40 45 15 53 -4 48 -110 l-4
-93 -29 0 c-25 0 -30 5 -39 40 -9 35 -14 40 -40 40 l-30 0 0 -80 0 -80 96 0
97 0 -5 50 -5 50 38 0 c44 0 45 -2 55 -107 l7 -73 -227 0 -226 0 0 40 c0 38 2
40 30 40 l29 0 3 166 c2 91 0 170 -3 175 -3 6 -19 13 -35 18 -28 7 -42 36 -31
64 3 9 67 13 221 15 210 3 216 3 216 -16z m-1840 -7 c0 -9 9 -15 24 -15 14 0
28 -4 31 -10 10 -17 25 -11 25 10 0 17 7 20 39 20 49 0 55 -15 46 -105 l-7
-65 -33 0 c-19 0 -40 -3 -49 -6 -13 -5 -16 1 -16 32 0 48 -23 61 -92 56 l-48
-4 0 -42 c0 -35 4 -43 28 -54 15 -7 51 -16 80 -19 28 -3 52 -10 52 -16 0 -15
33 -36 58 -37 19 0 22 -5 22 -40 0 -22 5 -40 10 -40 16 0 12 -94 -6 -128 -13
-27 -21 -32 -50 -32 -24 0 -34 -5 -34 -15 0 -12 -16 -15 -80 -15 -64 0 -80 3
-80 15 0 8 -5 15 -11 15 -6 0 -17 -7 -25 -15 -16 -16 -62 -20 -79 -7 -6 4 -9
44 -7 95 l3 87 44 0 c43 0 43 -1 50 -40 4 -22 11 -40 16 -40 5 0 9 -7 9 -15 0
-21 88 -20 118 1 32 22 30 77 -5 110 -14 13 -29 20 -32 15 -4 -6 -24 -2 -50
10 -24 10 -58 19 -77 19 -24 0 -34 4 -34 16 0 9 -9 27 -20 41 -13 17 -20 41
-20 68 0 47 17 105 31 105 5 0 9 7 9 15 0 11 11 15 40 15 29 0 40 4 40 15 0
11 11 15 40 15 29 0 40 -4 40 -15z m160 -185 c0 -5 -4 -10 -10 -10 -5 0 -10 5
-10 10 0 6 5 10 10 10 6 0 10 -4 10 -10z m-393 -62 c-3 -8 -6 -5 -6 6 -1 11 2
17 5 13 3 -3 4 -12 1 -19z"/>
<path d="M4960 2970 c0 -7 -20 -10 -50 -9 -50 3 -79 -15 -80 -48 0 -7 -8 -16
-17 -22 -15 -8 -18 -23 -16 -103 1 -56 6 -94 12 -96 6 -2 11 -10 11 -17 0 -19
22 -65 30 -65 4 0 11 10 15 23 7 21 8 21 12 -7 l5 -29 60 7 c34 3 69 6 79 6
12 0 19 7 19 18 0 10 9 25 20 35 17 14 20 29 20 95 0 79 -14 142 -31 142 -5 0
-9 7 -9 15 0 8 -5 15 -11 15 -6 0 -20 11 -31 25 -20 26 -38 33 -38 15z m0
-105 c0 -8 7 -15 15 -15 12 0 15 -16 15 -80 l0 -80 -45 0 c-33 0 -45 4 -45 15
0 8 -4 15 -10 15 -6 0 -10 33 -10 80 l0 80 40 0 c29 0 40 -4 40 -15z"/>
<path d="M0 735 l0 -735 821 0 c544 0 818 3 814 10 -3 6 -13 10 -21 10 -8 0
-14 7 -14 15 0 18 -49 64 -67 65 -7 0 -13 7 -13 15 0 8 -5 15 -11 15 -14 0
-69 55 -69 69 0 6 -8 11 -17 11 -10 0 -29 12 -42 25 -13 14 -29 25 -37 25 -8
0 -14 9 -14 20 0 12 -10 25 -25 32 -14 6 -25 15 -25 20 0 4 -7 8 -15 8 -8 0
-15 5 -15 11 0 14 -38 47 -67 59 -13 5 -23 16 -23 25 0 8 -9 15 -20 15 -11 0
-20 5 -20 11 0 14 -55 69 -69 69 -6 0 -11 9 -11 19 0 12 -9 21 -25 25 -14 4
-25 13 -25 21 0 8 -6 15 -14 15 -13 0 -96 76 -96 89 0 3 -18 17 -40 31 -22 14
-40 30 -40 36 0 7 -12 19 -26 29 -14 9 -33 24 -43 34 -9 9 -33 29 -54 45 -20
16 -37 35 -37 42 0 8 -10 14 -25 14 -16 0 -25 6 -25 15 0 8 -7 15 -15 15 -8 0
-15 7 -15 15 0 8 -5 15 -11 15 -12 0 -39 25 -39 37 0 4 -13 14 -29 21 -17 7
-36 26 -43 42 -8 19 -23 32 -42 36 -15 3 -31 14 -33 24 -3 10 -13 20 -24 23
-10 3 -19 12 -19 20 0 8 -9 17 -20 20 -11 3 -20 12 -20 21 0 9 -8 16 -20 16
-11 0 -20 5 -20 11 0 14 -55 69 -69 69 -6 0 -11 3 -11 8 0 4 -18 18 -40 32
-22 14 -40 32 -40 40 0 13 -59 60 -75 60 -3 0 -5 -331 -5 -735z"/>
<path d="M8895 298 c-8 -28 -15 -58 -15 -65 0 -8 -11 -25 -24 -40 -27 -29 -25
-68 3 -54 9 5 21 6 28 4 17 -6 26 16 13 32 -18 22 -3 34 40 32 30 -1 40 -5 40
-18 0 -10 -6 -20 -12 -22 -10 -4 -9 -8 2 -16 27 -19 30 -12 30 64 0 43 -4 75
-10 75 -5 0 -10 8 -10 18 0 25 -19 42 -47 42 -18 0 -25 -9 -38 -52z m56 -7
c-9 -6 -10 -11 -2 -15 19 -12 13 -48 -6 -44 -36 7 -25 68 12 68 6 0 4 -4 -4
-9z"/>
</g>
</svg>
